<svg width="16" height="16" viewBox="0 0 16 16" fill="none" xmlns="http://www.w3.org/2000/svg">
<path fill-rule="evenodd" clip-rule="evenodd" d="M8.00016 13.333C10.9457 13.333 13.3335 10.9452 13.3335 7.99967C13.3335 5.05416 10.9457 2.66634 8.00016 2.66634C5.05464 2.66634 2.66683 5.05416 2.66683 7.99967C2.66683 10.9452 5.05464 13.333 8.00016 13.333ZM8.00016 14.6663C11.6821 14.6663 14.6668 11.6816 14.6668 7.99967C14.6668 4.31778 11.6821 1.33301 8.00016 1.33301C4.31826 1.33301 1.3335 4.31778 1.3335 7.99967C1.3335 11.6816 4.31826 14.6663 8.00016 14.6663Z" fill="#5694FF"/>
<path fill-rule="evenodd" clip-rule="evenodd" d="M8.00016 4.66699C7.63197 4.66699 7.3335 4.96547 7.3335 5.33366C7.3335 5.70185 7.63197 6.00033 8.00016 6.00033C8.36835 6.00033 8.66683 5.70185 8.66683 5.33366C8.66683 4.96547 8.36835 4.66699 8.00016 4.66699ZM8.00016 7.33366C7.63197 7.33366 7.3335 7.63214 7.3335 8.00033V10.667C7.3335 11.0352 7.63197 11.3337 8.00016 11.3337C8.36835 11.3337 8.66683 11.0352 8.66683 10.667V8.00033C8.66683 7.63214 8.36835 7.33366 8.00016 7.33366Z" fill="#5694FF"/>
</svg>
