<svg width="24" height="24" viewBox="0 0 24 24" fill="none" xmlns="http://www.w3.org/2000/svg">
<path opacity="0.7" d="M21.1511 15.0937L21.1229 15.0696C21.0662 14.8743 20.9779 14.6895 20.8614 14.5227L20.6169 14.2287C20.604 14.1391 20.5856 14.0504 20.5618 13.963L20.2268 13.2903L20.0346 12.0975L20.2508 10.9047L20.5533 10.328V10.3111C20.5844 10.2052 20.6071 10.0969 20.6211 9.98743L20.8543 9.71749C20.9841 9.53962 21.0799 9.33935 21.137 9.12673L21.1624 9.10694C21.5025 8.8258 21.7329 8.43396 21.8132 8.00005C21.8934 7.56614 21.8185 7.11783 21.6014 6.73362C21.3844 6.34942 21.0391 6.05382 20.626 5.8986C20.2129 5.74338 19.7584 5.73843 19.3421 5.88462H19.3336C19.1105 5.81608 18.8765 5.79066 18.6439 5.80972L18.3202 5.86625C18.2096 5.81487 18.0947 5.77325 17.9768 5.74188L17.3295 5.7023L17.3139 5.691L16.1833 5.25712L15.242 4.4586L14.8406 3.82403L14.8223 3.80142C14.7589 3.73365 14.6909 3.67037 14.6187 3.61204L14.4972 3.25306V3.23892C14.4124 3.04931 14.2968 2.87501 14.1552 2.72307L14.1467 2.67643C14.0684 2.21095 13.8288 1.78787 13.4698 1.48136C13.1108 1.17485 12.6554 1.00447 12.1834 1.00009C11.7114 0.995704 11.2529 1.1576 10.8883 1.45739C10.5237 1.75718 10.2763 2.17574 10.1894 2.63969L10.1767 2.70187C10.0367 2.84696 9.92073 3.01347 9.83323 3.19511L9.6919 3.58236C9.62464 3.63567 9.56047 3.69276 9.49969 3.75337L9.05025 4.43316L8.11039 5.19352L7.01931 5.58359L6.99387 5.59772L6.97973 5.60761L6.36211 5.63305H6.34233C6.22517 5.66168 6.11073 5.70046 6.0003 5.74894L5.68655 5.68817H5.67948C5.45154 5.66536 5.22134 5.68598 5.00108 5.74894C4.58732 5.59414 4.13225 5.59002 3.71575 5.73729C3.29925 5.88456 2.94793 6.17383 2.72344 6.55431C2.49896 6.93479 2.41566 7.38218 2.48817 7.81796C2.56068 8.25373 2.78436 8.65005 3.11995 8.93735L3.13126 8.94583C3.18469 9.16522 3.2776 9.37306 3.40544 9.5592L3.61603 9.81076C3.62742 9.92638 3.6487 10.0408 3.67963 10.1528L3.96229 10.7266V10.7478L4.15168 11.9222L3.93826 13.0967L3.58352 13.7751L3.57221 13.8033C3.54792 13.884 3.52903 13.9661 3.51568 14.0492L3.25846 14.3446L3.24856 14.3573C3.13218 14.5178 3.04202 14.6958 2.98145 14.8845L2.93622 14.9227C2.56984 15.2228 2.32121 15.6426 2.23418 16.1081C2.14715 16.5736 2.22731 17.0549 2.46053 17.4671C2.69375 17.8793 3.06503 18.1958 3.5089 18.361C3.95276 18.5261 4.44069 18.5292 4.8866 18.3697L4.91487 18.3584C5.11966 18.4107 5.33169 18.4289 5.54239 18.4121L5.91692 18.3471C6.00866 18.3849 6.10315 18.4156 6.19958 18.439L6.95712 18.487L8.10474 18.928L9.02764 19.7095L9.05308 19.7251L9.40076 20.272L9.41206 20.2861C9.49327 20.3727 9.58221 20.4517 9.67777 20.5222L9.79225 20.8529C9.88586 21.0611 10.0182 21.2496 10.1823 21.4083V21.4295C10.2469 21.8691 10.4686 22.2705 10.8065 22.5592C11.1443 22.8479 11.5753 23.0044 12.0196 22.9997H12.038C12.4789 23.008 12.908 22.8576 13.2471 22.5758C13.5862 22.2941 13.8127 21.8997 13.8852 21.4648V21.4267C14.0459 21.2722 14.1771 21.0897 14.2725 20.8882L14.3954 20.5532C14.4852 20.4879 14.5694 20.415 14.647 20.3356L15.0286 19.7618L15.9812 18.9901L17.1217 18.5817L17.8284 18.552H17.8581C17.9513 18.5295 18.0429 18.5007 18.1323 18.4658L18.4828 18.5336H18.4983C18.5631 18.5405 18.6282 18.5438 18.6934 18.5435C18.8361 18.543 18.9783 18.5264 19.1174 18.4941L19.14 18.5026C19.3767 18.5943 19.6281 18.6422 19.882 18.6439C20.2272 18.6388 20.5652 18.5439 20.8626 18.3684C21.16 18.193 21.4066 17.943 21.5779 17.6433C21.8279 17.2387 21.9224 16.7572 21.8439 16.2882C21.7654 15.8192 21.5192 15.3947 21.1511 15.0937ZM20.4713 16.996C20.1889 17.5059 19.7339 17.8983 19.188 18.1026L18.9054 17.9966C19.7676 17.2527 20.3594 16.2445 20.5886 15.129L20.8176 15.324C20.9076 15.9049 20.7846 16.4987 20.4713 16.996ZM14.8859 19.5682C14.8364 19.5908 14.7841 19.6134 14.729 19.6346L14.8632 19.2714L15.1247 19.2431L14.9367 19.5258L14.8859 19.5682ZM14.2753 20.3851C14.2026 20.4363 14.1271 20.4835 14.0492 20.5264L14.134 20.0685C14.2315 20.0445 14.3262 20.0204 14.4166 19.9936L14.2753 20.3851ZM13.7736 21.2981C13.2833 21.7084 12.6634 21.9317 12.0241 21.9284C11.3847 21.925 10.7672 21.6952 10.2813 21.2797L10.2078 20.8345C10.7801 21.0738 11.395 21.195 12.0154 21.1906H12.0677C12.68 21.2001 13.2879 21.0867 13.8555 20.8571L13.7736 21.2981ZM12.0168 20.9857C11.3778 20.99 10.7457 20.8534 10.1654 20.5858L10.0806 20.077C10.7492 20.2219 11.4316 20.293 12.1157 20.289C12.747 20.2929 13.3769 20.2313 13.9955 20.1052L13.9022 20.6084C13.3096 20.8727 12.6655 21.0016 12.0168 20.9857ZM9.65091 19.9625C9.74419 19.9922 9.84171 20.019 9.94206 20.043L10.0198 20.508C9.93914 20.4618 9.86127 20.4108 9.7866 20.3554L9.65091 19.9625ZM9.13788 19.4933L8.94567 19.1894L9.21703 19.2233L9.34564 19.595C9.28204 19.5696 9.21985 19.5427 9.16191 19.5145L9.13788 19.4933ZM3.58918 16.8419C3.28216 16.3334 3.17157 15.7303 3.27824 15.146L3.51709 14.9495C3.61298 15.5167 3.81022 16.062 4.09938 16.5593C4.37 17.0484 4.72229 17.4877 5.141 17.8581L4.84279 17.9627C4.30575 17.7487 3.86169 17.3517 3.58918 16.8419ZM4.20397 10.7421C4.20397 10.6814 4.2181 10.6178 4.228 10.5527L4.46685 10.8354C4.4301 10.9145 4.39477 10.9937 4.36085 11.0714L4.20821 10.7647L4.20397 10.7421ZM3.81672 9.79946C3.80786 9.71023 3.80409 9.62058 3.80541 9.53093L4.14744 9.82348C4.11917 9.91676 4.09232 10.01 4.0697 10.1061L3.81672 9.79946ZM3.63016 7.09016C3.93802 6.53088 4.44828 6.11065 5.05621 5.91571L5.46041 6.06694C4.47688 6.84476 3.82119 7.96346 3.62309 9.20163L3.29662 8.91897C3.16786 8.28917 3.28736 7.63397 3.63016 7.09016ZM4.42869 7.55655C4.74434 7.0017 5.17869 6.52344 5.70068 6.15597L6.16707 6.32981C5.28912 7.30521 4.61624 8.44717 4.18842 9.68781L3.81248 9.36558C3.88007 8.72276 4.09062 8.10321 4.42869 7.55231V7.55655ZM6.47094 6.01888C6.40169 6.0839 6.32961 6.16021 6.26035 6.22664L5.83636 6.06835C5.91598 6.02197 5.99807 5.97998 6.08227 5.94256L6.47094 6.01888ZM7.114 5.81113L7.47298 5.797L7.31187 6.00899L6.94016 5.93833C6.99811 5.8931 7.05606 5.8507 7.11259 5.81254L7.114 5.81113ZM17.1924 5.90723C17.2504 5.94681 17.3083 5.99203 17.3662 6.04008L16.9818 6.10651C16.9267 6.03019 16.873 5.95529 16.8193 5.88321L17.1882 5.90582L17.1924 5.90723ZM18.2368 6.05846C18.3224 6.10084 18.4054 6.14803 18.4856 6.19979L18.0461 6.35525C17.9754 6.27893 17.9047 6.20544 17.8341 6.13619L18.2368 6.05846ZM20.6748 7.25128C21.0114 7.80502 21.1189 8.46816 20.9745 9.09987L20.6353 9.38253C20.4638 8.13729 19.8301 7.00213 18.8601 6.20261L19.2841 6.06128C19.8809 6.2665 20.3778 6.69018 20.6748 7.24704V7.25128ZM20.159 10.2757C20.1392 10.1853 20.1152 10.092 20.0897 9.99308L20.4416 9.71042C20.4407 9.7988 20.4345 9.88705 20.4233 9.97471L20.159 10.2757ZM20.0092 10.8863L19.9979 10.9499L19.8438 11.2424C19.8127 11.1661 19.7802 11.087 19.7449 11.0064L19.9922 10.7238C19.9988 10.7784 20.0044 10.8326 20.0092 10.8863ZM15.9459 18.3146C15.9868 18.2326 16.0278 18.1492 16.0702 18.0658L16.5239 18.1521L16.4137 18.2934L15.9459 18.3146ZM15.3 18.9407C15.194 18.9548 15.0837 18.9675 14.9721 18.9788L15.1134 18.5944L15.5374 18.6269L15.3381 18.928L15.3 18.9407ZM9.9039 19.0085L9.82334 18.528C9.82401 18.5181 9.82401 18.5082 9.82334 18.4983C11.255 18.4545 12.8691 18.47 14.2937 18.5435C14.2937 18.552 14.2937 18.5605 14.2937 18.569L14.2046 19.0453C12.7714 19.1311 11.334 19.1188 9.90249 19.0085H9.9039ZM14.1439 19.3293L14.0478 19.8438C12.7251 20.1164 11.3597 20.1068 10.041 19.8155L9.95478 19.294C10.6996 19.3519 11.5264 19.3816 12.3419 19.3816C12.9609 19.3859 13.5743 19.3633 14.1396 19.3293H14.1439ZM8.75063 18.8771L8.54852 18.5591C8.68986 18.5492 8.83119 18.5407 8.98242 18.5336L9.12375 18.9294C8.99796 18.9124 8.875 18.8969 8.7577 18.8785L8.75063 18.8771ZM7.6652 18.2128L7.55213 18.0616L7.99591 17.9853H8.01853C8.06234 18.0743 8.10333 18.1619 8.14431 18.2482L7.6652 18.2128ZM6.89494 6.59834C6.11158 7.74697 5.40344 8.94513 4.77495 10.1853L4.38912 9.85599C4.81476 8.58143 5.50329 7.41045 6.41017 6.41885L6.89494 6.59834ZM7.16488 6.70009L7.63128 6.87393C6.95995 8.12611 6.14588 9.50549 5.36996 10.6898L4.99402 10.369C5.63189 9.09816 6.35578 7.87234 7.16064 6.70009H7.16488ZM8.2065 5.76166C8.14573 5.88462 8.08213 6.01182 8.0157 6.14043L7.62138 6.06411C7.6977 5.96376 7.77119 5.86766 7.84469 5.78145L8.2065 5.76166ZM15.6123 5.62881L15.3226 5.64719C15.3155 5.62599 15.3084 5.60479 15.3028 5.585L15.1685 5.19493L15.3537 5.22178L15.6123 5.62881ZM16.4603 5.85635C16.5324 5.95104 16.6016 6.05139 16.6822 6.15597L16.2737 6.22664C16.2087 6.08531 16.1465 5.96235 16.0858 5.83374L16.4603 5.85635ZM19.2318 10.5358L18.8446 10.8552C18.0955 9.64965 17.3026 8.24907 16.6511 6.97851L17.126 6.8075C17.9094 8.00116 18.6106 9.24681 19.2248 10.5358H19.2318ZM17.4044 6.7114L17.8991 6.53615C18.7876 7.54948 19.4531 8.73836 19.8523 10.0256L19.4438 10.3521C18.8415 9.09533 18.1579 7.8792 17.3973 6.7114H17.4044ZM19.6657 11.5435V11.5774L19.5046 11.8954C19.4297 11.7837 19.3548 11.6693 19.2771 11.5505L19.5399 11.2481C19.5842 11.348 19.6252 11.4464 19.6629 11.5435H19.6657ZM19.8565 13.9842L19.5131 13.6889C19.5371 13.6408 19.5611 13.5899 19.5837 13.5475L19.8791 13.9009C19.8678 13.9249 19.8678 13.9546 19.8537 13.9842H19.8565ZM20.101 14.1609L20.1915 14.2697L20.094 14.1863C20.094 14.1779 20.0954 14.1694 20.0982 14.1567L20.101 14.1609ZM17.3535 17.4115C18.08 16.3315 18.7408 15.2087 19.3322 14.0492L19.7265 14.3969C19.3117 15.5764 18.6724 16.6644 17.8439 17.6009L17.3535 17.4115ZM15.2166 18.2792C15.2576 18.1535 15.3 18.0277 15.3452 17.9005C15.5219 17.9358 15.6943 17.974 15.8653 18.015C15.813 18.1181 15.7635 18.2199 15.7141 18.3202L15.2166 18.2792ZM14.4873 18.2326C14.5212 18.0771 14.558 17.9217 14.5975 17.769C14.7926 17.7987 14.9862 17.8312 15.1784 17.868C15.1318 18.0008 15.0866 18.1351 15.0371 18.2679C14.859 18.2552 14.6739 18.2453 14.4845 18.2354L14.4873 18.2326ZM9.05873 18.2072C9.01775 18.0658 8.97393 17.9344 8.92729 17.7973C9.12516 17.7648 9.32444 17.7365 9.52513 17.7111C9.56188 17.868 9.5958 18.0249 9.62689 18.1831L9.05873 18.2072ZM8.37468 18.2496C8.32663 18.145 8.27716 18.0404 8.22487 17.933C8.40012 17.8948 8.57962 17.8595 8.76052 17.8284C8.80434 17.9584 8.84673 18.0885 8.88631 18.2171C8.70257 18.2298 8.53722 18.2397 8.37186 18.2552L8.37468 18.2496ZM7.91394 17.3027C8.1104 17.2376 8.30684 17.1783 8.50612 17.1246C8.55276 17.2461 8.59799 17.3677 8.64745 17.4878C8.45242 17.5231 8.26021 17.5627 8.07082 17.6037L7.91394 17.3027ZM5.00108 13.7327L5.4378 13.3723L5.45759 13.3553C6.16425 14.5029 6.91048 15.8145 7.53234 17.0214L7.50408 17.0299L6.9656 17.2207C6.23777 16.1007 5.58161 14.9357 5.00108 13.7327ZM6.72392 17.2998L6.20947 17.4807C5.39745 16.5254 4.77873 15.4214 4.3877 14.2301L4.80322 13.8881C5.37336 15.0634 6.01479 16.2028 6.72392 17.2998ZM14.1368 5.09317L14.2258 5.62457C14.2258 5.64719 14.2343 5.66839 14.2386 5.691C12.8789 5.73057 11.3653 5.71502 10.0113 5.6486L10.024 5.585L10.123 5.05784C11.4622 4.98459 12.8047 4.99639 14.1425 5.09317H14.1368ZM10.1682 4.81051L10.2685 4.27205C11.5041 4.0383 12.7735 4.04791 14.0054 4.30031L14.0958 4.84302C12.7903 4.75283 11.4805 4.74292 10.1738 4.81334L10.1682 4.81051ZM15.7197 5.82526C15.789 5.97649 15.8611 6.13195 15.9402 6.29024C15.8088 6.3185 15.6773 6.34394 15.5431 6.36938C15.4823 6.19413 15.4258 6.0203 15.3735 5.84646L15.7197 5.82526ZM18.5958 11.0644C18.4757 11.1689 18.357 11.2749 18.2411 11.3838C17.2779 10.1026 16.4819 8.70397 15.8724 7.2216C16.0292 7.17779 16.1847 7.12974 16.3402 7.08027C17.0058 8.3904 17.8185 9.82348 18.5958 11.0644ZM19.3308 12.195C19.2686 12.284 19.205 12.3745 19.1414 12.4678C19.0241 12.3406 18.9082 12.2077 18.7937 12.0735C18.8813 11.9745 18.969 11.8784 19.058 11.7837C19.147 11.9265 19.2375 12.0636 19.3279 12.1964L19.3308 12.195ZM16.3713 17.0497C16.1706 16.9776 15.9685 16.9083 15.7649 16.8476C16.3775 15.4573 17.1542 14.1454 18.0786 12.9398C18.2293 13.0868 18.3843 13.2281 18.5435 13.3638C17.7987 14.5227 17.02 15.8413 16.3684 17.0511L16.3713 17.0497ZM9.58025 5.8295C9.53785 6.03019 9.49121 6.22946 9.43892 6.42733C9.31454 6.40754 9.19159 6.38775 9.07004 6.36514C9.13788 6.18 9.20007 5.99486 9.25943 5.80972L9.58025 5.8295ZM17.7563 12.048C17.8567 11.942 17.957 11.8374 18.0602 11.7357C18.1874 11.8996 18.3165 12.0598 18.4474 12.2162C18.3641 12.3137 18.2835 12.4141 18.2015 12.5144C18.0461 12.3604 17.8977 12.2063 17.7478 12.0466L17.7563 12.048ZM17.6687 11.9491C16.5065 10.6339 15.6259 9.09482 15.0809 7.42653C15.2307 7.39402 15.3791 7.3601 15.5275 7.32194C16.1553 8.85866 16.9795 10.3076 17.9796 11.6325C17.8708 11.7328 17.769 11.8403 17.6659 11.9477L17.6687 11.9491ZM17.4016 12.2402C16.2647 13.5112 15.3867 14.9917 14.8166 16.5988C13.0108 16.1921 11.1397 16.169 9.32444 16.531C8.77603 14.8986 7.9116 13.3902 6.78046 12.0918C8.01054 10.7463 8.94973 9.16149 9.53926 7.43642C11.2349 7.79778 12.9852 7.81988 14.6894 7.50143C15.254 9.25147 16.1766 10.8648 17.3988 12.2388L17.4016 12.2402ZM15.0399 7.29368C14.9721 7.08027 14.9099 6.86969 14.8534 6.65063C14.9871 6.63273 15.12 6.61294 15.2519 6.59127C15.3226 6.79054 15.3932 6.99123 15.478 7.19051C15.3296 7.23149 15.1827 7.26541 15.0371 7.29792L15.0399 7.29368ZM14.6513 7.37C12.9754 7.68112 11.2548 7.65951 9.58732 7.3064C9.65893 7.08875 9.72535 6.86828 9.7866 6.64497C11.3369 6.85432 12.9071 6.87236 14.4619 6.69868C14.517 6.92905 14.5792 7.15235 14.6484 7.37282L14.6513 7.37ZM9.83323 6.48527C9.88835 6.2761 9.9364 6.06128 9.98163 5.85211C11.3596 5.92137 12.9058 5.93691 14.2894 5.89593C14.3304 6.11075 14.3757 6.31992 14.4308 6.53756C12.9018 6.7071 11.3579 6.68954 9.83323 6.48527ZM9.40076 6.59268C9.3414 6.80468 9.27639 7.01667 9.20713 7.22301C9.0658 7.1891 8.92447 7.15376 8.78314 7.11419C8.86511 6.91915 8.94284 6.72271 9.01492 6.52767L9.40076 6.59268ZM9.16332 7.34738C8.59416 8.9938 7.69644 10.5074 6.52464 11.7964C6.42571 11.6876 6.32537 11.5816 6.2222 11.477C7.23621 10.1765 8.07973 8.75167 8.73225 7.23715C8.86793 7.27531 9.01209 7.31205 9.15625 7.34738H9.16332ZM6.42996 11.8954C6.28297 12.0537 6.13174 12.2087 5.97628 12.3604C5.89713 12.2586 5.81657 12.1583 5.73742 12.0607C5.87028 11.9053 6.00266 11.746 6.13457 11.583C6.23491 11.6834 6.33244 11.788 6.42996 11.8954ZM6.69283 12.1893C7.80285 13.469 8.65172 14.9536 9.19158 16.5593C8.96545 16.6073 8.74074 16.661 8.51743 16.7204C7.91657 15.2843 7.14347 13.9265 6.21513 12.6769C6.37907 12.5158 6.53831 12.3528 6.69283 12.1879V12.1893ZM9.31454 16.931C9.35694 17.077 9.39793 17.2226 9.43751 17.3677C9.22409 17.3959 9.01351 17.427 8.80716 17.4624C8.76193 17.3366 8.71529 17.2094 8.66583 17.0822C8.88065 17.0257 9.09689 16.9748 9.31454 16.9295V16.931ZM9.44316 16.9069C11.1769 16.5687 12.9617 16.5908 14.6866 16.9719C14.6399 17.1133 14.5961 17.2617 14.5537 17.4087C12.9016 17.1737 11.226 17.1547 9.56894 17.3521C9.52937 17.2023 9.48697 17.0539 9.44316 16.9055V16.9069ZM14.8138 17.0002C15.0244 17.0497 15.2378 17.1048 15.4441 17.1656C15.3932 17.2885 15.3438 17.4115 15.3028 17.5344C15.1007 17.4949 14.8972 17.4595 14.6894 17.427C14.7262 17.2829 14.7686 17.1401 14.8152 16.9988L14.8138 17.0002ZM14.941 16.6285C15.5037 15.0473 16.3676 13.5901 17.485 12.3377C17.6362 12.5045 17.7917 12.6656 17.9514 12.8239C17.0096 14.0507 16.219 15.3865 15.5968 16.8024C15.3819 16.7373 15.1629 16.678 14.9424 16.6271L14.941 16.6285ZM18.3132 12.6317C18.3923 12.5342 18.4701 12.4395 18.5492 12.349C18.6736 12.4904 18.8008 12.6317 18.928 12.773L18.7513 13.0387C18.6086 12.9059 18.4616 12.7702 18.3132 12.6317ZM19.0679 12.9342L19.4043 13.3369C19.3746 13.3991 19.3435 13.4627 19.3138 13.5263L18.9251 13.1942L18.9068 13.1772C18.9661 13.0953 19.0198 13.0133 19.0735 12.9342H19.0679ZM18.6764 11.9448C18.552 11.8035 18.4305 11.6452 18.3118 11.4883C18.4248 11.3824 18.5407 11.2792 18.658 11.1774C18.7579 11.3357 18.8568 11.4898 18.9548 11.6396C18.8672 11.7399 18.7739 11.8403 18.682 11.9448H18.6764ZM15.8144 7.10006C15.7381 6.91068 15.666 6.72129 15.5982 6.53474C15.7395 6.50788 15.8808 6.47962 16.0222 6.44994C16.1041 6.61859 16.1889 6.7896 16.2766 6.96297C16.1253 7.00961 15.9727 7.05624 15.8201 7.10006H15.8144ZM15.1883 6.43439L14.8067 6.49093C14.7573 6.28882 14.7134 6.08672 14.6739 5.88179L15.0088 5.86907C15.0696 6.05563 15.1304 6.24218 15.194 6.43439H15.1883ZM14.6385 5.67687C14.6385 5.63729 14.6216 5.59772 14.6159 5.55815L14.5438 5.12568L14.77 5.14829L14.948 5.66415L14.6385 5.67687ZM9.64102 5.51151C9.63396 5.54967 9.62548 5.58783 9.617 5.62599L9.3202 5.60903L9.50534 5.10165L9.72017 5.08469L9.64102 5.51151ZM8.97252 5.52423V5.53271C8.97252 5.54967 8.96121 5.56663 8.95697 5.58217L8.67431 5.55956L8.93719 5.16242L9.11103 5.14264L8.97252 5.52423ZM8.88914 5.78428C8.83402 5.95387 8.77466 6.12488 8.71247 6.29589C8.58386 6.26904 8.45666 6.24077 8.32946 6.21109C8.40719 6.05563 8.48351 5.90441 8.55559 5.75601L8.88914 5.78428ZM8.25173 6.36514C8.38458 6.39623 8.51884 6.42733 8.65452 6.45559C8.58527 6.64074 8.51319 6.82446 8.43263 7.00961C8.28423 6.96438 8.13725 6.91492 7.99167 6.86828L8.25173 6.36514ZM7.92807 6.98134C8.07789 7.03363 8.22911 7.08451 8.38034 7.13115C7.74821 8.59395 6.93381 9.97104 5.95649 11.2297C5.84343 11.1209 5.72753 11.0149 5.61023 10.9103C6.40875 9.68498 7.24261 8.27309 7.9309 6.98275L7.92807 6.98134ZM5.54097 11.0191C5.65545 11.1209 5.76852 11.2255 5.87876 11.3315C5.7558 11.4855 5.63142 11.6367 5.50423 11.7851C5.41519 11.6806 5.32473 11.5802 5.23428 11.4799C5.33604 11.3301 5.4378 11.1774 5.54097 11.0191ZM5.13676 11.624C5.22297 11.7187 5.30777 11.8148 5.39257 11.9067C5.27574 12.0405 5.15702 12.1719 5.03642 12.301C4.97423 12.2063 4.91346 12.1173 4.8541 12.0282C4.94738 11.8954 5.04207 11.7639 5.13676 11.624ZM5.62436 12.1893C5.70209 12.284 5.777 12.3801 5.8519 12.472C5.71057 12.6133 5.55793 12.7448 5.40388 12.8762L5.2357 12.6105C5.36572 12.4748 5.49575 12.3335 5.62436 12.1865V12.1893ZM5.247 13.0175L5.18906 13.067L4.83007 13.3638L4.74527 13.1673L5.09295 12.766L5.247 13.0175ZM5.61446 13.2182C5.77841 13.0769 5.9367 12.9356 6.09217 12.7942C7.00316 14.0226 7.76243 15.3565 8.35349 16.767C8.14431 16.8254 7.93655 16.889 7.73021 16.9578C7.09704 15.7226 6.33809 14.3828 5.61446 13.2154V13.2182ZM9.65374 17.7012C11.2513 17.515 12.8662 17.5335 14.459 17.7563C14.4195 17.9137 14.3827 18.072 14.3488 18.2312C13.4358 18.1817 12.4521 18.1563 11.4826 18.1563C10.8932 18.1563 10.3109 18.1662 9.75267 18.1846C9.72582 18.0192 9.6919 17.8595 9.65374 17.6984V17.7012ZM15.4667 17.5698C15.512 17.4511 15.5586 17.3338 15.6081 17.215C15.8017 17.273 15.9925 17.3366 16.1833 17.403L16.0292 17.6899C15.8441 17.6461 15.6575 17.6051 15.4667 17.5669V17.5698ZM16.3783 17.4723L16.4038 17.4807L16.8843 17.6616C16.8419 17.721 16.7995 17.7818 16.7571 17.8397L16.2384 17.7394C16.2836 17.6489 16.3345 17.5585 16.3783 17.4694V17.4723ZM16.5649 17.1218C17.2051 15.9346 17.9683 14.6442 18.6962 13.5122L19.14 13.8924C18.5385 15.0796 17.8625 16.2276 17.1161 17.3295L16.5649 17.1218ZM19.571 12.9794L19.2799 12.6303L19.4325 12.4084L19.6389 12.8225C19.6181 12.8734 19.5955 12.9247 19.571 12.9766V12.9794ZM19.7816 13.108L19.9343 13.4147L19.7449 13.1885L19.7816 13.108ZM19.1824 11.4007C19.0919 11.2594 19 11.1181 18.9082 10.9767L19.2785 10.6715C19.3435 10.8128 19.4057 10.9541 19.4636 11.0841L19.1824 11.4007ZM16.5903 6.8598H16.5833C16.5013 6.69868 16.4207 6.54039 16.343 6.38351L16.7825 6.3072C16.8716 6.43157 16.9606 6.56018 17.0511 6.69585L16.5903 6.8598ZM15.0752 4.94195L14.9636 4.61548L15.1784 4.95467L15.0752 4.94195ZM14.5099 4.88259L14.4265 4.4049L14.5283 4.4374L14.6852 4.89248C14.6258 4.88966 14.565 4.884 14.5043 4.87976L14.5099 4.88259ZM14.3813 4.10528L14.3474 3.906L14.4209 4.11658L14.3813 4.10528ZM10.3293 3.98091L10.4141 3.52582C11.5311 3.0906 12.7722 3.09818 13.8838 3.54702L13.9601 4.00776C12.7617 3.77632 11.531 3.76722 10.3293 3.98091ZM9.85585 4.38228L9.76963 4.84302L9.60145 4.85574L9.76539 4.40914L9.85585 4.38228ZM9.88411 4.08266L9.93923 3.94133L9.91238 4.08266H9.88411ZM9.11809 4.90238L9.31454 4.60417L9.20996 4.88683L9.11809 4.90238ZM7.93231 6.30013C7.85458 6.45135 7.77261 6.60682 7.68922 6.76228L7.23696 6.59268C7.32883 6.46266 7.41787 6.33829 7.50691 6.21816L7.93231 6.30013ZM5.30071 10.81C5.2046 10.9513 5.11132 11.0926 5.01804 11.234L4.74527 10.9061C4.80605 10.7732 4.86964 10.6375 4.9389 10.4976L5.30071 10.81ZM4.91911 11.3753C4.83997 11.4926 4.76223 11.6071 4.6845 11.7187L4.52621 11.3979C4.56861 11.2933 4.61572 11.1845 4.66754 11.0714L4.91911 11.3753ZM4.74527 12.2374C4.79474 12.3109 4.8442 12.3787 4.8866 12.4607L4.86682 12.4819L4.58415 12.807C4.56154 12.7547 4.54034 12.7024 4.52055 12.6515L4.74527 12.2374ZM4.41314 13.0119L4.228 13.2253L4.38205 12.9342L4.41314 13.0119ZM4.63927 13.5207L4.28453 13.8118C4.27746 13.7821 4.27181 13.7539 4.26615 13.7256L4.57143 13.3723C4.58981 13.4217 4.61383 13.4712 4.63645 13.5207H4.63927ZM4.03861 14.0153L3.9524 14.0874L4.03296 13.9941C4.0355 14.001 4.03739 14.0081 4.03861 14.0153ZM4.15733 14.4266C4.54938 15.5798 5.14961 16.6514 5.92822 17.5881L5.49292 17.7408C4.56617 16.9838 3.96354 15.9014 3.80824 14.7149L4.15733 14.4266ZM6.50627 17.8001L6.95147 17.6419L7.05464 17.7931L6.58542 17.875L6.50627 17.8001ZM6.24481 17.9344L6.01726 17.9726L6.21937 17.9019L6.24481 17.9344ZM7.19032 17.5486L7.63552 17.3917C7.66096 17.3818 7.68781 17.3747 7.71325 17.3663C7.7613 17.4595 7.80794 17.5528 7.85458 17.6489L7.32035 17.7422L7.19032 17.5486ZM9.15343 18.5195L9.68484 18.4983L9.69332 18.545L9.76822 18.993C9.6071 18.9788 9.45164 18.9619 9.30041 18.9449L9.15343 18.5195ZM14.4096 18.5888C14.4096 18.5746 14.4166 18.5605 14.4195 18.5464C14.5947 18.5548 14.7671 18.5661 14.9367 18.5775L14.7799 18.9972C14.6385 19.0113 14.4802 19.0241 14.3234 19.0354L14.4096 18.5888ZM16.7882 18.2001L17.1048 18.2609L16.7302 18.2764C16.75 18.2552 16.7684 18.2298 16.7882 18.2043V18.2001ZM17.1203 17.7422L17.5443 17.9033L17.4694 17.9712L17.0143 17.8835L17.1203 17.7422ZM17.8411 18.0121L18.0022 18.0729L17.8157 18.0362L17.8411 18.0121ZM19.9611 14.5891L20.2989 14.8718C20.1147 16.0513 19.4899 17.117 18.5506 17.8538L18.1266 17.6956C18.9229 16.782 19.5456 15.7307 19.9639 14.5934L19.9611 14.5891ZM19.7463 12.3278L19.6276 12.0918L19.7194 11.9166L19.7661 12.2105L19.7463 12.3278ZM19.6671 10.8354C19.6144 10.7176 19.5592 10.5975 19.5018 10.475L19.8791 10.1641C19.9102 10.28 19.9342 10.393 19.9555 10.5033L19.6671 10.8354ZM19.8537 7.69788C20.1835 8.25873 20.3825 8.88675 20.436 9.53517L20.0473 9.85458C19.6461 8.60238 18.9972 7.4436 18.1393 6.44711L18.6199 6.27752C19.1309 6.65493 19.553 7.13976 19.8565 7.69788H19.8537ZM17.7931 6.42591L17.3238 6.59834C17.2447 6.48103 17.167 6.36514 17.0892 6.25349L17.533 6.17717C17.6206 6.25632 17.7083 6.34111 17.7959 6.43157L17.7931 6.42591ZM16.1932 5.63447L15.9741 5.62175L15.8215 5.38149L15.9515 5.43095L16.1932 5.63447ZM13.7693 2.85027L13.8216 3.16826C12.7424 2.78913 11.5673 2.78167 10.4834 3.14706L10.5413 2.83331C10.9923 2.46756 11.5594 2.27552 12.1398 2.29202H12.168C12.7513 2.28099 13.3193 2.47901 13.7693 2.85027ZM8.45524 5.32071L8.31391 5.5313L8.30543 5.54684L8.09767 5.55532L8.3337 5.36311L8.45524 5.32071ZM7.20163 6.15032C7.1239 6.25773 7.04475 6.36938 6.9656 6.48245L6.51051 6.31285C6.59672 6.22522 6.68435 6.14325 6.77198 6.06835L7.20163 6.15032ZM4.35095 9.98884L4.717 10.3026C4.65623 10.4241 4.5997 10.5443 4.54458 10.6616L4.26191 10.328C4.28735 10.2206 4.31703 10.109 4.35095 9.99308V9.98884ZM4.46402 11.7329L4.55306 11.9123L4.43151 12.1455L4.41173 12.0254L4.46402 11.7329ZM6.94016 18.1634L7.28925 18.1139L7.35003 18.2001L6.95006 18.1747L6.94016 18.1634ZM8.02559 18.5492L8.30826 18.5676L8.42557 18.7513L8.12877 18.6382L8.02559 18.5492ZM9.40924 19.2445L9.82334 19.2841L9.90531 19.7816C9.78377 19.7491 9.66787 19.7137 9.55763 19.6742L9.40924 19.2445ZM14.1905 19.8099L14.281 19.3209L14.6838 19.2898L14.5297 19.7137C14.4152 19.7463 14.3022 19.7802 14.1834 19.8099H14.1905ZM15.6632 18.8106L15.7777 18.6396L16.049 18.6283L15.9501 18.7075L15.6632 18.8106ZM20.2183 10.5386C20.2183 10.5202 20.2113 10.5005 20.207 10.4807L20.3102 10.3605L20.2183 10.5386ZM20.737 9.6129L20.6565 9.70759C20.6565 9.65106 20.6565 9.59312 20.6565 9.53517L20.8981 9.3359C20.8524 9.4341 20.796 9.527 20.73 9.6129H20.737ZM21.5016 6.7962C21.7006 7.13136 21.7787 7.5246 21.7229 7.91037C21.6671 8.29613 21.4808 8.65112 21.1949 8.91615C21.2565 8.31348 21.1312 7.70645 20.8358 7.1775C20.5405 6.64855 20.0895 6.22331 19.5442 5.95953C19.916 5.85792 20.3112 5.88533 20.6655 6.03728C21.0197 6.18924 21.312 6.45676 21.4946 6.7962H21.5016ZM18.675 5.97931C18.7981 5.96919 18.9219 5.97394 19.0439 5.99344L18.7372 6.10085C18.6835 6.06411 18.6298 6.02878 18.5746 5.99627L18.675 5.97931ZM17.8977 5.94398L17.6842 5.98072L17.6221 5.92702L17.8977 5.94398ZM12.1709 1.39033C12.4748 1.38863 12.7728 1.47414 13.0296 1.63672C13.2863 1.7993 13.4911 2.03212 13.6195 2.30756C13.1709 2.06819 12.6709 1.9411 12.1623 1.93716C11.6538 1.93322 11.1519 2.05256 10.6996 2.28495C10.8336 2.01074 11.0434 1.78072 11.3042 1.62215C11.565 1.46358 11.8658 1.38313 12.1709 1.39033ZM6.68718 5.82526L6.62923 5.87331L6.43561 5.83516L6.68718 5.82526ZM5.49999 5.84929C5.55177 5.84644 5.60367 5.84644 5.65545 5.84929L5.74873 5.86766C5.69644 5.89734 5.64415 5.92985 5.59044 5.96518L5.2993 5.85635C5.36598 5.84979 5.43301 5.84743 5.49999 5.84929ZM2.83163 6.62095C2.98059 6.36033 3.19485 6.14299 3.45333 5.99034C3.7118 5.83768 4.00558 5.75497 4.30573 5.75036C4.46972 5.75126 4.63282 5.77456 4.7905 5.81961C4.2435 6.07304 3.787 6.48755 3.48212 7.00762C3.17724 7.5277 3.03855 8.12851 3.08462 8.72959C2.81027 8.45848 2.6359 8.1024 2.58995 7.71944C2.54401 7.33648 2.6292 6.94926 2.83163 6.62095ZM3.37435 9.15782L3.60613 9.35568C3.60613 9.41645 3.59907 9.4744 3.59907 9.53376L3.53547 9.45744C3.47052 9.36403 3.41646 9.26351 3.37435 9.15782ZM3.91283 10.1712L4.02448 10.304L4.01176 10.369L3.91283 10.1712ZM2.80195 17.2659C2.64812 17.0031 2.57312 16.7017 2.5859 16.3975C2.59868 16.0932 2.6987 15.7991 2.87403 15.5502C2.88793 16.0565 3.02363 16.5521 3.26964 16.9949C3.51566 17.4378 3.86475 17.8148 4.28736 18.0941C3.98673 18.111 3.68748 18.0422 3.42449 17.8955C3.1615 17.7489 2.9456 17.5305 2.80195 17.2659ZM9.37673 19.8664L9.44881 19.8932L9.51665 20.0869L9.37673 19.8664ZM9.94206 20.7893L9.90249 20.6734C9.95619 20.7059 10.0113 20.7356 10.0693 20.7638L10.123 21.0903C10.0507 21.0001 9.98813 20.9025 9.93641 20.7992L9.94206 20.7893ZM12.0338 22.8682H12.0168C11.6294 22.8718 11.2522 22.7435 10.9474 22.5044C10.6425 22.2653 10.428 21.9296 10.3392 21.5525C10.824 21.9129 11.4142 22.1032 12.0182 22.0937H12.0507C12.6502 22.1095 13.2378 21.9256 13.7213 21.5708C13.6293 21.948 13.4114 22.2824 13.1035 22.5188C12.7956 22.7553 12.4162 22.8795 12.0281 22.8711L12.0338 22.8682ZM14.1198 20.8218C14.0729 20.922 14.015 21.0168 13.9474 21.1044L14.0068 20.7893C14.0605 20.7624 14.1128 20.7356 14.1622 20.7059L14.1198 20.8218ZM14.5665 20.0911L14.6258 19.9314L14.6866 19.9102L14.5665 20.0911ZM21.243 17.4397C21.0949 17.7005 20.876 17.914 20.6116 18.0555C20.3473 18.1971 20.0482 18.2609 19.7491 18.2397C20.1759 17.9708 20.5318 17.6033 20.7871 17.1683C21.0424 16.7332 21.1895 16.2433 21.2161 15.7396C21.3815 15.9919 21.4713 16.2863 21.475 16.588C21.4788 16.8897 21.3963 17.1862 21.2373 17.4426L21.243 17.4397Z" fill="url(#paint0_linear_8925_30571)"/>
<defs>
<linearGradient id="paint0_linear_8925_30571" x1="2.19995" y1="12" x2="20.2622" y2="17.3903" gradientUnits="userSpaceOnUse">
<stop stop-color="#5EE6D0"/>
<stop offset="0.515056" stop-color="#BFC6FF"/>
<stop offset="1" stop-color="#FFBA69"/>
</linearGradient>
</defs>
</svg>
