<?xml version="1.0" standalone="no"?>
<!DOCTYPE svg PUBLIC "-//W3C//DTD SVG 20010904//EN"
 "http://www.w3.org/TR/2001/REC-SVG-20010904/DTD/svg10.dtd">
<svg version="1.0" xmlns="http://www.w3.org/2000/svg"
 width="200.000000pt" height="200.000000pt" viewBox="0 0 200.000000 200.000000"
 preserveAspectRatio="xMidYMid meet" >

<g transform="translate(0.000000,200.000000) scale(0.100000,-0.100000)"
fill="#FFFFFF" stroke="none" >
<path d="M0 1000 l0 -1000 1000 0 1000 0 0 1000 0 1000 -1000 0 -1000 0 0
-1000z m1145 411 c96 -34 98 -72 2 -51 -202 46 -396 -85 -424 -285 -5 -39 -4
-47 8 -42 8 3 61 26 119 50 410 172 850 266 850 182 0 -27 -71 -92 -164 -150
-99 -61 -104 -61 -121 8 -9 39 -12 42 -40 39 -46 -5 -396 -124 -522 -178 -77
-33 -113 -53 -113 -64 0 -32 66 -125 115 -162 68 -52 138 -72 234 -66 115 7
201 59 269 161 46 69 67 35 27 -44 -77 -151 -250 -251 -410 -236 -76 7 -128
25 -269 90 l-111 52 -129 -2 c-191 -3 -210 18 -99 114 102 88 137 127 163 185
89 201 111 241 161 293 56 59 143 109 219 125 64 13 167 5 235 -19z"/>
</g>
</svg>
