<svg width="16" height="16" viewBox="0 0 16 16" fill="none" xmlns="http://www.w3.org/2000/svg">
<path d="M6.2501 10.4999H5.5001V9.74988V2.99988C5.5001 2.86727 5.44742 2.7401 5.35365 2.64633C5.25988 2.55256 5.13271 2.49988 5.0001 2.49988C4.86749 2.49988 4.74031 2.55256 4.64654 2.64633C4.55278 2.7401 4.5001 2.86727 4.5001 2.99988V9.74988V10.4999H3.7501H3.0001C2.90139 10.4996 2.80479 10.5285 2.72249 10.583C2.64018 10.6375 2.57585 10.7151 2.5376 10.8061L6.2501 10.4999ZM6.2501 10.4999H7.0001H6.2501ZM13.0001 5.49988H12.2501H11.5001V6.24988V12.9999C11.5001 13.1325 11.4474 13.2597 11.3537 13.3534C11.2599 13.4472 11.1327 13.4999 11.0001 13.4999C10.8675 13.4999 10.7403 13.4472 10.6465 13.3534C10.5528 13.2597 10.5001 13.1325 10.5001 12.9999V6.24988V5.49988H9.7501H13.0001ZM13.0001 5.49988C13.0988 5.50019 13.1954 5.47127 13.2777 5.41677M13.0001 5.49988L13.2777 5.41677M13.4626 5.19363C13.4986 5.10128 13.5078 5.00061 13.489 4.90328C13.4702 4.80595 13.4242 4.71593 13.3563 4.64363L13.4626 5.19363ZM13.4626 5.19363L13.0141 5.01871L13.0016 5.01383L13.0001 5.01324L12.9905 5.00949L13.4626 5.19363ZM13.4626 5.19363C13.4243 5.28463 13.36 5.36228 13.2777 5.41677M13.4626 5.19363L13.2777 5.41677M5.0001 12.6517L3.59826 11.2499H4.5001H4.7501H5.2501H5.5001H6.40194L5.0001 12.6517ZM7.00245 11.2499C7.00166 11.2499 7.00088 11.2499 7.0001 11.2499L7.00245 11.2499ZM9.59826 4.74988L11.0001 3.34804L12.4019 4.74988H11.5001H11.2501H10.7501H10.5001H9.59826ZM8.99853 4.99988L8.5376 5.19363L9.0001 4.99988L8.99964 4.99942L8.99853 4.99988ZM13.0024 4.74988H13.0001C13.0009 4.74988 13.0017 4.74988 13.0024 4.74988Z" fill="#131419" stroke="#868A97" stroke-width="1.5"/>
</svg>
