<svg width="20" height="20" viewBox="0 0 20 20" fill="none" xmlns="http://www.w3.org/2000/svg">
<path d="M4.39062 8.125C4.38958 7.38404 4.53514 6.6502 4.81892 5.96575C5.1027 5.28129 5.5191 4.65974 6.04412 4.1369C6.56914 3.61405 7.19242 3.20025 7.87805 2.91931C8.56368 2.63838 9.29812 2.49587 10.0391 2.5C13.1328 2.52343 15.6094 5.09375 15.6094 8.19531V8.75C15.6094 11.5469 16.1953 13.1719 16.7109 14.0625C16.7657 14.1573 16.7946 14.2649 16.7947 14.3744C16.7948 14.484 16.7661 14.5916 16.7115 14.6865C16.6569 14.7815 16.5783 14.8604 16.4836 14.9154C16.3889 14.9705 16.2814 14.9996 16.1719 15H3.82812C3.7186 14.9996 3.6111 14.9705 3.51639 14.9154C3.42169 14.8604 3.3431 14.7815 3.28851 14.6865C3.23391 14.5916 3.20523 14.484 3.20532 14.3744C3.20542 14.2649 3.2343 14.1573 3.28906 14.0625C3.80468 13.1719 4.39062 11.5469 4.39062 8.75V8.125Z" stroke="white" stroke-width="1.5" stroke-linecap="round" stroke-linejoin="round"/>
<path d="M7.5 15V15.625C7.5 16.288 7.76339 16.9239 8.23223 17.3928C8.70107 17.8616 9.33696 18.125 10 18.125C10.663 18.125 11.2989 17.8616 11.7678 17.3928C12.2366 16.9239 12.5 16.288 12.5 15.625V15" stroke="white" stroke-width="2" stroke-linecap="round" stroke-linejoin="round"/>
</svg>
