<svg width="18" height="18" viewBox="0 0 18 18" fill="none" xmlns="http://www.w3.org/2000/svg">
<path d="M8.99988 3.4375H8.99992C10.4746 3.43954 11.8883 4.02626 12.931 5.069C13.9737 6.11175 14.5605 7.52542 14.5625 9.00009L14.625 9L14.5625 9.00012C14.5649 10.2387 14.1498 11.4413 13.3853 12.4141L5.58588 4.61467C6.5587 3.85018 7.76127 3.43507 8.99988 3.4375ZM9.00013 14.5625H9.00009C7.52543 14.5605 6.11175 13.9737 5.06901 12.931C4.02626 11.8883 3.43955 10.4746 3.4375 8.99991L3.375 9L3.4375 8.99988C3.43507 7.76126 3.85018 6.55869 4.61468 5.58588L12.4141 13.3853C11.4413 14.1498 10.2387 14.5649 9.00013 14.5625ZM4.3471 2.03644C5.72436 1.11619 7.34357 0.625006 8.99997 0.625C11.2205 0.627061 13.3496 1.51009 14.9197 3.08027C16.4899 4.65045 17.3729 6.77948 17.375 9.00006C17.375 10.6565 16.8838 12.2757 15.9636 13.6529C15.0433 15.0302 13.7353 16.1036 12.205 16.7375C10.6746 17.3714 8.99071 17.5372 7.36612 17.2141C5.74153 16.8909 4.24925 16.0933 3.07798 14.922C1.90672 13.7508 1.10908 12.2585 0.785927 10.6339C0.462776 9.00929 0.628629 7.32536 1.26251 5.79503C1.8964 4.26469 2.96984 2.9567 4.3471 2.03644ZM9 15.9375H9.00007C10.8394 15.9354 12.6027 15.2038 13.9033 13.9033C15.2038 12.6027 15.9354 10.8394 15.9375 9.00007L15.875 9H15.9375C15.9375 7.62789 15.5306 6.2866 14.7683 5.14573C14.006 4.00487 12.9225 3.11567 11.6549 2.59059C10.3872 2.0655 8.99231 1.92812 7.64656 2.1958C6.30082 2.46349 5.06468 3.12422 4.09445 4.09445C3.12422 5.06467 2.46349 6.30082 2.19581 7.64656C1.92812 8.9923 2.06551 10.3872 2.59059 11.6549C3.11567 12.9225 4.00487 14.006 5.14574 14.7683C6.2866 15.5306 7.6279 15.9375 9 15.9375Z" fill="white" stroke="white" stroke-width="0.125"/>
</svg>
