<svg width="130" height="130" viewBox="0 0 130 130" fill="none" xmlns="http://www.w3.org/2000/svg">
<g opacity="0.7">
<path d="M103.29 101.692C101.059 101.692 99.2435 99.876 99.2435 97.6448C99.2435 95.4137 101.059 93.598 103.29 93.598C105.522 93.598 107.337 95.4137 107.337 97.6448C107.337 99.876 105.522 101.692 103.29 101.692ZM103.29 96.2959C102.546 96.2959 101.941 96.9002 101.941 97.6448C101.941 98.3895 102.546 98.9938 103.29 98.9938C104.035 98.9938 104.639 98.3895 104.639 97.6448C104.639 96.9002 104.035 96.2959 103.29 96.2959Z" fill="#5C606D"/>
<path d="M22.7771 34.2845L20.4646 36.5969L25.0896 41.2219L27.402 38.9094L22.7771 34.2845Z" fill="#5C606D"/>
<path d="M38.3823 33.7042L33.7574 38.3291L36.0699 40.6416L40.6948 36.0167L38.3823 33.7042Z" fill="#5C606D"/>
<path d="M25.0903 47.0012L20.4654 51.6261L22.7779 53.9385L27.4028 49.3136L25.0903 47.0012Z" fill="#5C606D"/>
<path fill-rule="evenodd" clip-rule="evenodd" d="M51.5883 48.82C50.0187 48.82 48.7395 49.7623 47.9454 50.9584L35.9646 64.4419L35.8942 64.443L35.8666 66.042L35.4996 87.3403L35.4993 87.3545V87.3687C35.4993 88.96 35.9959 90.465 36.872 91.6062C37.7491 92.7487 39.0777 93.598 40.6729 93.598H88.5464C90.1412 93.598 91.4699 92.7493 92.3471 91.6068C93.2234 90.4655 93.7199 88.9605 93.7199 87.3687V87.3529L93.7196 87.337L93.3068 65.8448L93.2813 64.5142L93.3029 64.495L93.2804 64.4697L93.2757 64.2249H93.0628L81.2741 50.9599C80.48 49.7624 79.2007 48.82 77.631 48.82H51.5883ZM88.6435 64.2249L78.7209 53.0595L78.6288 52.956L78.5554 52.8386C78.1791 52.2374 77.7949 52.1233 77.631 52.1233H51.5883C51.4241 52.1233 51.0397 52.2377 50.6634 52.8382L50.5901 52.9551L50.4985 53.0583L40.4431 64.3749L50.4497 64.2251L50.462 64.2249H50.4744C51.8362 64.2249 52.9495 64.954 53.6686 65.8959C54.3867 66.8366 54.7848 68.0632 54.7848 69.3462V69.3723C54.7848 69.9856 54.9799 70.4809 55.2203 70.7899C55.4595 71.0973 55.6796 71.1583 55.8038 71.1583H73.4155C73.5339 71.1583 73.754 71.0993 73.9961 70.7864C74.239 70.4725 74.4345 69.9719 74.4345 69.358V69.3497C74.4345 68.0668 74.8326 66.84 75.5501 65.8989C76.2685 64.9567 77.3813 64.226 78.7435 64.2249H78.7449H88.6435ZM39.1419 67.698L50.4816 67.5283C50.5938 67.5306 50.8058 67.5897 51.0429 67.9003C51.2862 68.219 51.4815 68.7273 51.4815 69.3462V69.3723C51.4815 71.777 53.0593 74.4616 55.8038 74.4616H73.4155C76.1674 74.4616 77.7378 71.7532 77.7378 69.358V69.3497C77.7378 68.7308 77.9331 68.2216 78.1769 67.9018C78.4196 67.5835 78.6359 67.5284 78.7458 67.5282H90.0352L90.4166 87.3835C90.4135 88.301 90.1231 89.0792 89.727 89.5951C89.3298 90.1124 88.8976 90.2947 88.5464 90.2947H40.6729C40.322 90.2947 39.8897 90.1124 39.4923 89.5948C39.0958 89.0783 38.8054 88.2994 38.8027 87.3818L39.1419 67.698Z" fill="#5C606D"/>
<path d="M58.7517 49.2414C59.9084 48.7819 61.225 48.465 62.6857 48.3181C63.0818 48.2792 63.3699 47.9263 63.331 47.5301C63.2907 47.1354 62.9378 46.8459 62.5431 46.8848C60.9369 47.0461 59.4907 47.3976 58.2202 47.9032C57.85 48.0487 57.6699 48.4679 57.8169 48.8381C57.9638 49.2068 58.383 49.3883 58.7517 49.2414Z" fill="#5C606D"/>
<path d="M66.2147 48.2905C67.9173 48.4187 69.4759 48.4461 70.8991 48.3856C71.2967 48.3698 71.6064 48.0341 71.5891 47.6366C71.5733 47.239 71.2362 46.9307 70.8401 46.9466C69.4673 47.0042 67.9649 46.9768 66.3227 46.8529C65.9266 46.8241 65.5809 47.1209 65.5506 47.517C65.5204 47.9146 65.8186 48.2603 66.2147 48.2905Z" fill="#5C606D"/>
<path d="M74.7885 47.9594C76.4681 47.6439 77.8927 47.1772 79.0898 46.6025C79.4484 46.4296 79.5997 45.9989 79.4268 45.6417C79.2554 45.283 78.8247 45.1318 78.466 45.3032C77.3684 45.8304 76.0619 46.2553 74.522 46.5449C74.1316 46.6183 73.8738 46.9943 73.9473 47.3861C74.0207 47.7765 74.3981 48.0329 74.7885 47.9594Z" fill="#5C606D"/>
<path d="M82.0259 44.6016C83.3165 43.3556 84.0742 41.9209 84.4156 40.4617C84.5064 40.0742 84.2644 39.6867 83.8783 39.596C83.4908 39.5052 83.1033 39.7472 83.0126 40.1333C82.7303 41.3447 82.0965 42.5317 81.0262 43.5645C80.7395 43.8411 80.7309 44.2977 81.0075 44.5829C81.284 44.8696 81.7392 44.8782 82.0259 44.6016Z" fill="#5C606D"/>
<path d="M84.0724 35.5021C83.5005 33.9839 82.5311 32.6947 81.3499 31.8793C81.0229 31.6546 80.5749 31.7367 80.3487 32.0637C80.1226 32.3907 80.2047 32.8401 80.5331 33.0663C81.4882 33.7246 82.2617 34.779 82.7241 36.0092C82.8638 36.3808 83.2787 36.5695 83.6518 36.4298C84.0234 36.2901 84.2121 35.8738 84.0724 35.5021Z" fill="#5C606D"/>
<path d="M57.5746 61.3657C57.1871 60.8197 56.8544 60.2709 56.5749 59.7221C56.3949 59.3677 55.9613 59.2266 55.6069 59.4081C55.2526 59.5881 55.1114 60.0217 55.2915 60.3761C55.6012 60.9854 55.9699 61.5947 56.4006 62.2011C56.6311 62.5252 57.0805 62.6001 57.4046 62.3711C57.7287 62.1406 57.8051 61.6898 57.5746 61.3657Z" fill="#5C606D"/>
<path d="M55.5766 56.7259C55.447 55.9049 55.4412 55.1025 55.555 54.3333C55.6126 53.94 55.3404 53.5742 54.9471 53.5165C54.5539 53.4589 54.188 53.7312 54.1289 54.1244C53.9964 55.0319 54.0007 55.9798 54.1534 56.9492C54.2153 57.3424 54.5841 57.6104 54.9774 57.5484C55.3692 57.4865 55.6385 57.1177 55.5766 56.7259Z" fill="#5C606D"/>
<path d="M70.9611 30.9741C71.7352 27.2563 74.82 25.448 77.0449 25.435C77.7752 25.4307 78.4082 25.6067 78.7367 26.057C78.9313 26.324 78.9905 26.6819 78.9158 27.1207C78.8495 27.5132 79.1075 27.887 79.491 27.9549C79.8745 28.0227 80.2397 27.7586 80.306 27.366C80.4582 26.464 80.2665 25.741 79.8661 25.194C79.3063 24.4248 78.2799 23.9846 77.0378 23.9918C74.3294 24.0077 70.5241 26.1479 69.5823 30.6739C69.5005 31.0635 69.743 31.446 70.1237 31.5297C70.5043 31.6134 70.8794 31.3637 70.9611 30.9741Z" fill="#5C606D"/>
<path d="M70.6592 31.2195C71.471 35.0938 74.6953 36.9267 76.9928 36.9416C78.1308 36.9478 79.0529 36.5095 79.5037 35.7507C79.7759 35.2937 79.8946 34.7113 79.7675 33.9998C79.6116 33.1244 79.0553 32.0031 77.8909 30.6719C77.6691 30.4174 77.289 30.3975 77.0444 30.6272C76.7986 30.8582 76.7794 31.2506 77.0024 31.5051C77.813 32.4327 78.2938 33.2237 78.5049 33.8881C78.6644 34.3947 78.6608 34.8008 78.4833 35.1C78.3226 35.3695 78.0348 35.5321 77.6883 35.6216C77.253 35.7333 76.7314 35.7246 76.181 35.6042C74.4219 35.2192 72.4051 33.6956 71.8319 30.9563C71.7611 30.621 71.4422 30.4087 71.1184 30.4807C70.7947 30.554 70.5896 30.8843 70.6592 31.2195Z" fill="#5C606D"/>
<path d="M69.8525 31.5459H78.9928C79.7464 31.5459 80.3581 30.9415 80.3581 30.1969C80.3581 29.4523 79.7464 28.848 78.9928 28.848H69.8525C69.0989 28.848 68.4872 29.4523 68.4872 30.1969C68.4872 30.9415 69.0989 31.5459 69.8525 31.5459Z" fill="#5C606D"/>
</g>
</svg>
