<svg width="19" height="18" viewBox="0 0 19 18" fill="none" xmlns="http://www.w3.org/2000/svg">
<path d="M14.7541 4.14107L14.7983 4.09688L14.7541 4.05268L14.351 3.64956L14.351 3.64953C13.293 2.59274 11.9455 1.87332 10.4788 1.5822C9.012 1.29108 7.49187 1.44134 6.11049 2.01397C4.72911 2.5866 3.54851 3.55591 2.7179 4.79938C1.8873 6.04284 1.44398 7.50464 1.44398 9C1.44398 10.4954 1.8873 11.9572 2.7179 13.2006C3.54851 14.4441 4.72911 15.4134 6.11049 15.986C7.49187 16.5587 9.012 16.7089 10.4788 16.4178C11.9455 16.1267 13.293 15.4073 14.351 14.3505L14.3515 14.3499C14.4147 14.2853 14.4901 14.234 14.5734 14.1989C14.6567 14.1638 14.7462 14.1458 14.8365 14.1458C14.9269 14.1458 15.0163 14.1638 15.0996 14.1989C15.1829 14.234 15.2583 14.2853 15.3215 14.3499L15.322 14.3504C15.4505 14.4793 15.5227 14.6539 15.5227 14.8359C15.5227 15.018 15.4505 15.1926 15.322 15.3215C14.0718 16.5709 12.4794 17.4216 10.7458 17.7661C9.01223 18.1106 7.21544 17.9333 5.58259 17.2567C3.94975 16.5801 2.55418 15.4346 1.57232 13.9649C0.590464 12.4953 0.0664062 10.7675 0.0664062 9C0.0664062 7.23253 0.590464 5.50474 1.57232 4.03508C2.55418 2.56542 3.94975 1.41987 5.58259 0.743278C7.21544 0.0666825 9.01223 -0.110583 10.7458 0.233894C12.4794 0.578369 14.0719 1.42911 15.322 2.67857C15.322 2.67858 15.322 2.67858 15.322 2.67858L15.7251 3.0817L15.7693 3.12589L15.8135 3.0817L17.5291 1.36607L17.5295 1.36575C17.6249 1.26896 17.7468 1.20261 17.8799 1.17508C18.0128 1.14758 18.1508 1.16004 18.2766 1.21087C18.4022 1.26414 18.5096 1.3526 18.5859 1.46558C18.6622 1.57853 18.7042 1.71114 18.7068 1.84742V6.34688C18.7068 6.52921 18.6344 6.70408 18.5055 6.83301C18.3765 6.96195 18.2017 7.03438 18.0193 7.03438H13.5194C13.3841 7.03416 13.2519 6.99402 13.1393 6.919C13.0267 6.84398 12.9388 6.7374 12.8865 6.61263C12.8342 6.48785 12.8199 6.35042 12.8453 6.21754C12.8708 6.08476 12.9348 5.96243 13.0294 5.86584C13.0294 5.86577 13.0295 5.8657 13.0296 5.86563L14.7541 4.14107Z" fill="white" stroke="white" strokeWidth="0.125"/>
</svg>
