<svg width="20" height="20" viewBox="0 0 20 20" fill="none" xmlns="http://www.w3.org/2000/svg">
<path d="M17.219 13.265L17.2191 13.2652L17.223 13.2625C17.2869 13.2184 17.3591 13.1881 17.4353 13.1733C17.5115 13.1586 17.5898 13.1598 17.6655 13.1768C17.7412 13.1938 17.8126 13.2262 17.8751 13.2721C17.9376 13.318 17.99 13.3764 18.0289 13.4435C18.0678 13.5106 18.0924 13.585 18.1011 13.6621C18.1099 13.7392 18.1026 13.8172 18.0798 13.8913C18.0569 13.9655 18.019 14.0341 17.9683 14.0928C17.9177 14.1516 17.8554 14.1992 17.7855 14.2328L17.7854 14.2326L17.781 14.2351L10.281 18.6101L10.2805 18.6105C10.1957 18.6611 10.0988 18.6878 10 18.6878C9.90127 18.6878 9.80436 18.6611 9.71958 18.6105L9.71902 18.6101L2.22111 14.2364C2.10554 14.156 2.02428 14.0352 1.99341 13.8978C1.96238 13.7597 1.98459 13.6149 2.0556 13.4924C2.1266 13.3699 2.24119 13.2787 2.37649 13.237C2.51101 13.1955 2.65616 13.206 2.78329 13.2663L9.96857 17.4525L10 17.4708L10.0315 17.4525L17.219 13.265Z" fill="#CCD0D5" stroke="#CCD0D5" strokeWidth="0.125"/>
<path d="M17.219 9.515L17.2191 9.51515L17.223 9.51245C17.2869 9.46843 17.3591 9.43809 17.4353 9.42334C17.5115 9.4086 17.5898 9.40976 17.6655 9.42676C17.7412 9.44376 17.8126 9.47623 17.8751 9.52213C17.9376 9.56803 17.99 9.62637 18.0289 9.69348C18.0678 9.76058 18.0924 9.83501 18.1011 9.91208C18.1099 9.98916 18.1026 10.0672 18.0798 10.1413C18.0569 10.2155 18.019 10.2841 17.9683 10.3428C17.9177 10.4016 17.8554 10.4492 17.7855 10.4828L17.7854 10.4826L17.781 10.4851L10.281 14.8601L10.2805 14.8605C10.1957 14.9111 10.0988 14.9378 10 14.9378C9.90127 14.9378 9.80436 14.9111 9.71958 14.8605L9.71902 14.8601L2.22111 10.4864C2.10554 10.406 2.02428 10.2852 1.99341 10.1478C1.96238 10.0097 1.98459 9.8649 2.0556 9.74241C2.1266 9.61992 2.24119 9.52872 2.37649 9.487C2.51101 9.44552 2.65616 9.45599 2.78329 9.51629L9.96857 13.7025L10 13.7208L10.0315 13.7025L17.219 9.515Z" fill="#CCD0D5" stroke="#CCD0D5" strokeWidth="0.125"/>
<path d="M9.71955 11.1101L9.71899 11.1097L2.21913 6.7348C2.13454 6.68517 2.0644 6.61429 2.01566 6.52919C1.96692 6.44409 1.94128 6.34772 1.94128 6.24965C1.94128 6.15158 1.96692 6.05521 2.01566 5.97011C2.0644 5.885 2.13454 5.81412 2.21913 5.76449L9.71899 1.38957L9.719 1.38958L9.71997 1.38899C9.80436 1.33768 9.90123 1.31055 10 1.31055C10.0988 1.31055 10.1956 1.33768 10.28 1.38899L10.28 1.389L10.281 1.38957L17.7809 5.76449C17.7809 5.7645 17.7809 5.7645 17.7809 5.7645C17.8655 5.81413 17.9356 5.88501 17.9843 5.97011C18.0331 6.05521 18.0587 6.15158 18.0587 6.24965C18.0587 6.34772 18.0331 6.44409 17.9843 6.52919C17.9356 6.61428 17.8655 6.68516 17.7809 6.73479C17.7809 6.73479 17.7809 6.7348 17.7809 6.7348L10.281 11.1097L10.2804 11.1101C10.1957 11.1607 10.0988 11.1874 10 11.1874C9.90124 11.1874 9.80433 11.1607 9.71955 11.1101Z" fill="#CCD0D5" stroke="#CCD0D5" strokeWidth="0.125"/>
</svg>
