<svg width="20" height="20" viewBox="0 0 20 20" fill="none" xmlns="http://www.w3.org/2000/svg">
<path d="M3.125 17.5H16.875" stroke="#CCD0D5" strokeWidth="1.5" strokeLinecap="round" strokeLinejoin="round"/>
<path d="M8.75 10.625L7.35938 4.14063C7.30114 3.8672 7.30477 3.58421 7.37002 3.31237C7.43527 3.04054 7.56048 2.78673 7.73649 2.56953C7.91249 2.35233 8.13484 2.17724 8.38725 2.05707C8.63967 1.9369 8.91576 1.87469 9.19532 1.875H10.8047C11.0843 1.87469 11.3603 1.9369 11.6128 2.05707C11.8652 2.17724 12.0875 2.35233 12.2635 2.56953C12.4395 2.78673 12.5647 3.04054 12.63 3.31237C12.6952 3.58421 12.6989 3.8672 12.6406 4.14063L11.25 10.625" stroke="#CCD0D5" strokeWidth="1.5" strokeLinecap="round" strokeLinejoin="round"/>
<path d="M16.25 10.625H3.75C3.40482 10.625 3.125 10.9048 3.125 11.25V14.375C3.125 14.7202 3.40482 15 3.75 15H16.25C16.5952 15 16.875 14.7202 16.875 14.375V11.25C16.875 10.9048 16.5952 10.625 16.25 10.625Z" stroke="#CCD0D5" strokeWidth="1.5" strokeLinecap="round" strokeLinejoin="round"/>
</svg>
