<svg width="24" height="18" viewBox="0 0 24 18" fill="none" xmlns="http://www.w3.org/2000/svg">
<path fill-rule="evenodd" clip-rule="evenodd" d="M16.125 9.1998C18.4196 9.1998 20.45 7.35008 20.45 4.9998C20.45 2.64957 18.4195 0.799805 16.125 0.799805C13.8305 0.799805 11.8 2.64957 11.8 4.9998C11.8 7.35008 13.8304 9.1998 16.125 9.1998ZM16.125 7.66646C17.5872 7.66646 18.875 6.48695 18.875 4.9998C18.875 3.51265 17.5872 2.33313 16.125 2.33313C14.6628 2.33313 13.375 3.51265 13.375 4.9998C13.375 6.48695 14.6628 7.66646 16.125 7.66646Z" fill="#98989B"/>
<path fill-rule="evenodd" clip-rule="evenodd" d="M10.1775 11.2679C10.489 10.9929 10.3949 10.4539 9.98965 10.3621C9.45954 10.2419 8.75976 10.1331 7.87472 10.1331C5.07053 10.1332 3.29624 11.1556 2.22514 12.3673C1.16213 13.5699 0.799988 14.9502 0.799988 15.6665C0.799988 16.1435 0.923127 16.5375 1.20434 16.8102C1.4844 17.0818 1.88719 17.1998 2.37499 17.1998H7.69104C8.06093 17.1998 8.29614 16.8129 8.18975 16.4586C8.11428 16.2073 8.06987 15.9476 8.07499 15.6701V15.6665C8.07499 14.3712 8.57385 13.0404 9.52595 11.9242C9.72797 11.6872 9.9471 11.4712 10.1775 11.2679ZM7.76499 11.6664C5.47149 11.6931 4.16936 12.5198 3.41998 13.3678C2.59911 14.2931 2.37498 15.3184 2.37498 15.6664H6.49998C6.49998 14.2731 6.94411 12.8851 7.76499 11.6664Z" fill="#98989B"/>
<path fill-rule="evenodd" clip-rule="evenodd" d="M10.6225 17.1998L10.6248 17.1998H21.6252L21.6275 17.1998L21.6321 17.1997L21.6469 17.1994L21.6658 17.1986L21.6774 17.198L21.6979 17.1967C21.7406 17.1937 21.8005 17.1879 21.8717 17.1764C22.0133 17.1535 22.2053 17.1074 22.3997 17.0131C22.5949 16.9185 22.7969 16.7732 22.95 16.5506C23.104 16.3265 23.2 16.0361 23.2 15.6665C23.2 14.9502 22.8379 13.5699 21.7748 12.3673C20.7037 11.1555 18.9293 10.1331 16.125 10.1331C13.3206 10.1331 11.5463 11.1555 10.4751 12.3673C9.41213 13.5699 9.04999 14.9502 9.04999 15.6665C9.04999 16.0361 9.14594 16.3265 9.30002 16.5506C9.45303 16.7732 9.65513 16.9185 9.85023 17.0131C10.0447 17.1074 10.2366 17.1535 10.3782 17.1764C10.4495 17.1879 10.5093 17.1937 10.5521 17.1967C10.5735 17.1982 10.5907 17.199 10.6031 17.1994L10.6179 17.1997L10.6225 17.1998ZM21.625 15.6611C21.6222 15.3091 21.3954 14.2878 20.58 13.3678C19.821 12.5051 18.4872 11.6664 16.125 11.6664C13.7641 11.6664 12.4304 12.5064 11.67 13.3678C10.8546 14.2878 10.6264 15.3104 10.625 15.6611H21.625Z" fill="#98989B"/>
<path fill-rule="evenodd" clip-rule="evenodd" d="M2.86249 5.66649C2.86249 3.31626 4.893 1.46649 7.18749 1.46649C9.48197 1.46649 11.5125 3.31626 11.5125 5.66649C11.5125 8.01673 9.48197 9.86649 7.18749 9.86649C4.893 9.86649 2.86249 8.01673 2.86249 5.66649ZM4.43748 5.66648C4.43748 4.17933 5.72528 2.99982 7.18748 2.99982C8.64969 2.99982 9.93748 4.17933 9.93748 5.66648C9.93748 7.15364 8.64969 8.33315 7.18748 8.33315C5.72528 8.33315 4.43748 7.15364 4.43748 5.66648Z" fill="#98989B"/>
</svg>
