<svg width="574" height="132" viewBox="0 0 574 132" fill="none" xmlns="http://www.w3.org/2000/svg">
<path d="M103.326 28.6786C82.4256 7.77857 48.5432 7.75715 27.6354 28.7143C6.79179 49.6143 6.77036 83.417 27.6782 104.324C48.5789 125.224 82.4541 125.238 103.355 104.288C124.213 83.3884 124.227 49.5857 103.326 28.6786V28.6786ZM65.5022 110.629C41.1669 110.629 21.373 90.8359 21.373 66.5013C21.373 42.1668 41.1669 22.3736 65.5022 22.3736C89.8376 22.3736 108.053 40.5174 109.539 63.6238C111.181 89.5078 90.6445 110.629 65.5022 110.629V110.629Z" fill="url(#paint0_linear_884_769)"/>
<circle cx="65.5" cy="66.5" r="42.5" fill="url(#paint1_linear_884_769)" stroke="#131419" stroke-width="4"/>
<path d="M75.1425 63.3695C73.8479 65.5812 71.8211 67.2603 69.417 68.1183L72.191 82.535C72.2945 83.0602 72.2797 83.6002 72.1466 84.118C72.0134 84.6358 71.7693 85.1166 71.4364 85.5308C71.0962 85.945 70.6745 86.2779 70.1937 86.4998C69.7129 86.7291 69.1877 86.8475 68.6551 86.8475H62.9666C62.434 86.8475 61.9088 86.7291 61.428 86.4998C60.9472 86.2705 60.5182 85.9377 60.1853 85.5308C59.845 85.1166 59.6009 84.6358 59.4751 84.118C59.342 83.6002 59.3272 83.0602 59.4308 82.535L62.2121 68.1183C59.808 67.2603 57.7738 65.5812 56.4867 63.3695C55.1922 61.1578 54.7261 58.5615 55.1552 56.0317C55.5842 53.5019 56.8935 51.2163 58.8464 49.5594C60.7992 47.9098 63.2699 47 65.822 47C68.374 47 70.8447 47.9024 72.7975 49.5594C74.7504 51.2089 76.0597 53.5019 76.4887 56.0317C76.9178 58.5615 76.4518 61.1578 75.1572 63.3695H75.1425Z" fill="#131419"/>
<g clip-path="url(#clip0_884_769)">
<path d="M169.501 44.1953C172.17 45.3906 174.221 47.1039 175.639 49.3352C177.065 51.5664 177.777 54.212 177.777 57.272C177.777 60.332 177.065 62.9378 175.639 65.185C174.221 67.4322 172.17 69.1534 169.501 70.3487C166.832 71.5441 163.687 72.1417 160.092 72.1417H150.714V84.1984H143V42.4023H160.092C163.687 42.4023 166.832 43 169.501 44.1953ZM167.394 63.4239C169.137 61.9895 170.008 59.9416 170.008 57.272C170.008 54.6025 169.137 52.5545 167.394 51.1202C165.652 49.6858 163.101 48.9686 159.743 48.9686H150.714V65.5675H159.727C163.086 65.5675 165.644 64.8503 167.378 63.4159L167.394 63.4239Z" fill="white"/>
<path d="M223.414 42.4023V71.4245C223.414 77.5923 221.743 82.3338 218.401 85.6328C215.05 88.9398 210.433 90.5894 204.54 90.5894C201.055 90.5894 197.895 90.0794 195.044 89.0673C192.201 88.0553 189.785 86.605 187.805 84.7403L190.949 78.7717C194.632 82.1186 199.123 83.7841 204.422 83.7841C211.938 83.7841 215.7 79.7837 215.7 71.7831V68.6195C212.888 72.1975 208.809 73.9905 203.471 73.9905C198.133 73.9905 194.133 72.4764 191.25 69.4483C188.359 66.4202 186.918 62.0852 186.918 56.4273V42.4023H194.632V56.0767C194.632 59.7344 195.519 62.5155 197.278 64.4041C199.044 66.2927 201.507 67.2409 204.667 67.2409C208.025 67.2409 210.71 66.2369 212.706 64.2287C214.702 62.2206 215.708 59.2403 215.708 55.3038V42.4023H223.422H223.414Z" fill="white"/>
<path d="M261.272 84.1984L249.994 68.3167L238.834 84.1984H230.051L245.479 62.882L230.89 42.4023H239.61L250.239 57.272L260.741 42.4023H269.113L254.58 62.5792L270.182 84.1984H261.28H261.272Z" fill="white"/>
<path d="M289.88 48.9128V77.688H297.531V84.1984H274.57V77.688H282.221V48.9128H274.57V42.4023H297.531V48.9128H289.88Z" fill="white"/>
<path d="M310.614 83.4256C307.628 82.5092 305.26 81.298 303.525 79.7839L306.194 73.7516C307.897 75.1063 309.98 76.2139 312.451 77.0666C314.923 77.9272 317.409 78.3495 319.904 78.3495C322.993 78.3495 325.298 77.8475 326.819 76.8514C328.339 75.8553 329.1 74.5405 329.1 72.9069C329.1 71.7116 328.672 70.7314 327.824 69.9505C326.977 69.1695 325.9 68.5719 324.585 68.1256C323.278 67.6873 321.496 67.1933 319.247 66.6355C316.087 65.8784 313.521 65.1214 311.564 64.3644C309.608 63.6073 307.921 62.42 306.519 60.8103C305.117 59.2006 304.412 57.0172 304.412 54.2759C304.412 51.965 305.038 49.8692 306.282 47.9806C307.533 46.092 309.41 44.5859 311.921 43.4703C314.431 42.3547 317.512 41.7969 321.148 41.7969C323.682 41.7969 326.169 42.1156 328.624 42.7531C331.08 43.3906 333.194 44.307 334.976 45.5023L332.545 51.5347C330.723 50.4589 328.822 49.6461 326.842 49.0883C324.87 48.5305 322.946 48.2516 321.084 48.2516C318.035 48.2516 315.778 48.7695 314.289 49.8055C312.808 50.8414 312.071 52.212 312.071 53.9253C312.071 55.1206 312.491 56.0928 313.346 56.8498C314.194 57.6069 315.271 58.2045 316.578 58.6428C317.885 59.0811 319.667 59.5831 321.916 60.1409C325.005 60.8581 327.531 61.6072 329.511 62.3802C331.492 63.1611 333.178 64.3405 334.588 65.9342C335.998 67.528 336.695 69.6795 336.695 72.3809C336.695 74.6919 336.069 76.7797 334.826 78.6523C333.582 80.525 331.69 82.0152 329.155 83.1308C326.621 84.2464 323.54 84.8042 319.904 84.8042C316.697 84.8042 313.6 84.342 310.614 83.4336V83.4256Z" fill="white"/>
<path d="M367.292 83.4256C364.306 82.5092 361.938 81.298 360.203 79.7839L362.872 73.7516C364.575 75.1063 366.658 76.2139 369.129 77.0666C371.6 77.9272 374.087 78.3495 376.582 78.3495C379.671 78.3495 381.976 77.8475 383.496 76.8514C385.017 75.8553 385.777 74.5405 385.777 72.9069C385.777 71.7116 385.35 70.7314 384.502 69.9505C383.655 69.1695 382.578 68.5719 381.263 68.1256C379.956 67.6873 378.174 67.1933 375.925 66.6355C372.765 65.8784 370.198 65.1214 368.242 64.3644C366.286 63.6073 364.599 62.42 363.197 60.8103C361.795 59.2006 361.09 57.0172 361.09 54.2759C361.09 51.965 361.716 49.8692 362.959 47.9806C364.211 46.092 366.088 44.5859 368.599 43.4703C371.109 42.3547 374.19 41.7969 377.825 41.7969C380.36 41.7969 382.847 42.1156 385.302 42.7531C387.757 43.3906 389.872 44.307 391.654 45.5023L389.223 51.5347C387.401 50.4589 385.5 49.6461 383.52 49.0883C381.548 48.5305 379.623 48.2516 377.762 48.2516C374.713 48.2516 372.456 48.7695 370.967 49.8055C369.486 50.8414 368.749 52.212 368.749 53.9253C368.749 55.1206 369.169 56.0928 370.024 56.8498C370.872 57.6069 371.949 58.2045 373.256 58.6428C374.562 59.0811 376.344 59.5831 378.594 60.1409C381.683 60.8581 384.209 61.6072 386.189 62.3802C388.169 63.1611 389.856 64.3405 391.266 65.9342C392.668 67.528 393.373 69.6795 393.373 72.3809C393.373 74.6919 392.747 76.7797 391.504 78.6523C390.26 80.525 388.367 82.0152 385.833 83.1308C383.298 84.2464 380.217 84.8042 376.582 84.8042C373.374 84.8042 370.278 84.342 367.292 83.4336V83.4256Z" fill="white"/>
<path d="M430.344 44.0119C433.108 45.4861 435.263 47.6695 436.783 50.5463C438.312 53.4389 439.064 56.9292 439.064 61.0252V84.1903H431.35V73.4405H409.744V84.1903H402.148V61.0331C402.148 56.9292 402.909 53.4389 404.429 50.5542C405.958 47.6695 408.096 45.4941 410.869 44.0198C413.633 42.5456 416.88 41.8125 420.602 41.8125C424.325 41.8125 427.564 42.5456 430.336 44.0198L430.344 44.0119ZM431.35 66.9459V60.3159C431.35 56.4591 430.4 53.5345 428.499 51.5662C426.598 49.598 423.953 48.6098 420.547 48.6098C417.141 48.6098 414.488 49.59 412.595 51.5662C410.702 53.5425 409.744 56.4511 409.744 60.3159V66.9459H431.35V66.9459Z" fill="white"/>
<path d="M461.447 51.0006C459.625 52.5944 458.714 54.9452 458.714 58.045V61.623H476.812V68.1892H458.714V84.1905H451V58.045C451 52.9928 452.616 49.0164 455.839 46.1317C459.063 43.247 463.506 41.8047 469.161 41.8047C471.537 41.8047 473.755 42.0677 475.814 42.5856C477.873 43.1036 479.671 43.8606 481.215 44.8487L478.784 51.1759C476.329 49.4627 473.248 48.61 469.525 48.61C465.803 48.61 463.276 49.4069 461.455 51.0006H461.447Z" fill="white"/>
<path d="M520.254 80.1981C518.392 81.6723 516 82.8039 513.07 83.6008C510.139 84.3977 506.979 84.7961 503.574 84.7961C499.582 84.7961 496.192 84.2781 493.396 83.2422C490.6 82.2063 488.502 80.7719 487.076 78.9391C485.65 77.1062 484.938 74.9945 484.938 72.6119C484.938 70.2292 485.571 68.2928 486.838 66.5795C488.106 64.8663 489.808 63.6152 491.947 62.8183C490.323 61.9417 489.048 60.7225 488.113 59.1447C487.187 57.5748 486.72 55.8138 486.72 53.8614C486.72 51.6302 487.385 49.6141 488.707 47.8052C490.038 45.9963 492.018 44.5459 494.671 43.4462C497.325 42.3466 500.588 41.8047 504.469 41.8047C507.074 41.8047 509.633 42.0836 512.119 42.6414C514.614 43.1992 516.784 43.9563 518.646 44.9125L516.452 51.0644C512.967 49.2316 509.07 48.3152 504.762 48.3152C501.364 48.3152 498.798 48.865 497.079 49.9567C495.36 51.0484 494.497 52.5147 494.497 54.3475C494.497 56.1803 495.131 57.5031 496.398 58.4355C497.665 59.3758 499.526 59.838 501.974 59.838H512.951V66.2847H501.562C498.75 66.2847 496.572 66.7708 495.036 67.7509C493.491 68.7311 492.723 70.1734 492.723 72.078C492.723 73.9825 493.65 75.5045 495.511 76.6202C497.372 77.7358 500.184 78.2936 503.938 78.2936C506.552 78.2936 509.094 77.935 511.565 77.2178C514.036 76.5006 516.103 75.5045 517.767 74.2295L520.261 80.1981H520.254Z" fill="white"/>
</g>
<defs>
<linearGradient id="paint0_linear_884_769" x1="12" y1="77.7284" x2="113.832" y2="85.2964" gradientUnits="userSpaceOnUse">
<stop stop-color="#5EE6D0"/>
<stop offset="0.515056" stop-color="#BFC6FF"/>
<stop offset="1" stop-color="#FFBA69"/>
</linearGradient>
<linearGradient id="paint1_linear_884_769" x1="25" y1="75" x2="102.088" y2="80.729" gradientUnits="userSpaceOnUse">
<stop stop-color="#5EE6D0"/>
<stop offset="0.515056" stop-color="#BFC6FF"/>
<stop offset="1" stop-color="#FFBA69"/>
</linearGradient>
<clipPath id="clip0_884_769">
<rect width="377" height="84" fill="white" transform="translate(143 24)"/>
</clipPath>
</defs>
</svg>
