<svg width="24" height="24" viewBox="0 0 24 24" fill="none" xmlns="http://www.w3.org/2000/svg">
<rect width="24" height="24" rx="12" fill="#786DBC"/>
<path d="M12.053 8.20527L10.8662 7.01553C10.7064 6.86268 10.6139 6.65262 10.6089 6.43155C10.604 6.21048 10.6871 5.99651 10.84 5.83671C10.9928 5.67691 11.2029 5.58437 11.424 5.57945C11.645 5.57454 11.859 5.65764 12.0188 5.81048L12.0465 5.83817L14.6955 8.48722C15.0212 8.81289 15.0212 9.33964 14.6955 9.66531L12.0436 12.3144C11.8862 12.4645 11.6764 12.5471 11.4589 12.5445C11.2415 12.542 11.0336 12.4545 10.8799 12.3007C10.7261 12.1469 10.6386 11.9391 10.636 11.7216C10.6335 11.5042 10.7161 11.2944 10.8662 11.137L12.1099 9.89335C11.272 9.74545 10.4089 9.85872 9.6375 10.2178C8.86614 10.5769 8.22382 11.1645 7.79759 11.9009C7.37136 12.6372 7.18183 13.4869 7.25468 14.3346C7.32753 15.1823 7.65923 15.9872 8.20484 16.64C8.75046 17.2929 9.4836 17.7623 10.3049 17.9845C11.1262 18.2067 11.996 18.1711 12.7964 17.8824C13.5968 17.5937 14.289 17.066 14.7794 16.3706C15.2698 15.6753 15.5345 14.846 15.5378 13.9952V4.83275C15.5378 4.61189 15.6255 4.40008 15.7817 4.24391C15.9378 4.08774 16.1496 4 16.3705 4C16.5914 4 16.8032 4.08774 16.9593 4.24391C17.1155 4.40008 17.2033 4.61189 17.2033 4.83275V14.1066C17.18 15.2832 16.8012 16.4251 16.1166 17.3822C15.432 18.3393 14.4738 19.0668 13.3679 19.469C12.262 19.8712 11.0603 19.9292 9.9208 19.6354C8.78131 19.3417 7.75743 18.7099 6.98384 17.8231C6.21025 16.9364 5.72318 15.8363 5.5867 14.6675C5.45022 13.4987 5.67072 12.3159 6.21921 11.2748C6.76769 10.2337 7.61845 9.38301 8.6596 8.83461C9.70075 8.2862 10.8835 8.06579 12.0523 8.20236L12.053 8.20527Z" fill="white"/>
</svg>
