<svg width="48" height="48" viewBox="0 0 48 48" fill="none" xmlns="http://www.w3.org/2000/svg">
<rect width="48" height="48" rx="24" fill="#E6E7E8"/>
<path fill-rule="evenodd" clip-rule="evenodd" d="M25.5 23.7446C26.5008 23.3907 27.3443 22.6945 27.8815 21.7789C28.4186 20.8633 28.6147 19.7872 28.4352 18.741C28.2557 17.6948 27.7121 16.7457 26.9005 16.0614C26.0889 15.3772 25.0615 15.002 24 15.002C22.9385 15.002 21.9111 15.3772 21.0995 16.0614C20.2879 16.7457 19.7443 17.6948 19.5648 18.741C19.3853 19.7872 19.5814 20.8633 20.1186 21.7789C20.6557 22.6945 21.4992 23.3907 22.5 23.7446L21.345 29.7146C21.303 29.9317 21.3095 30.1555 21.3641 30.3698C21.4187 30.5841 21.52 30.7837 21.6607 30.9543C21.8015 31.1249 21.9783 31.2622 22.1783 31.3565C22.3784 31.4508 22.5968 31.4996 22.818 31.4996H25.182C25.4029 31.4992 25.621 31.45 25.8207 31.3556C26.0204 31.2611 26.1968 31.1237 26.3372 30.9532C26.4777 30.7826 26.5787 30.5832 26.6331 30.3691C26.6875 30.155 26.694 29.9315 26.652 29.7146L25.5 23.7446Z" fill="#1D1D1F"/>
</svg>
