<svg width="512" height="512" viewBox="0 0 512 512" fill="none" xmlns="http://www.w3.org/2000/svg">
<path d="M437 75.0227C336.99 -24.9848 174.861 -25.0873 74.8159 75.1935C-24.9215 175.201 -25.024 336.949 75.0209 436.99C175.032 536.998 337.126 537.066 437.137 436.819C536.943 336.812 537.011 175.064 437 75.0227V75.0227ZM256.011 467.16C139.565 467.16 44.8502 372.448 44.8502 256.006C44.8502 139.565 139.565 44.853 256.011 44.853C372.456 44.853 459.62 131.672 466.727 242.237C474.586 366.093 376.317 467.16 256.011 467.16V467.16Z" fill="url(#paint0_linear_806_6666)"/>
<circle cx="255.999" cy="255.999" r="203.364" fill="url(#paint1_linear_806_6666)" stroke="#131419" strokeWidth="19.1402"/>
<path d="M302.14 241.02C295.946 251.603 286.248 259.638 274.744 263.744L288.017 332.728C288.513 335.241 288.442 337.825 287.805 340.303C287.168 342.78 286 345.081 284.407 347.063C282.779 349.045 280.761 350.638 278.46 351.7C276.16 352.797 273.647 353.363 271.098 353.363H243.879C241.33 353.363 238.817 352.797 236.516 351.7C234.215 350.603 232.162 349.01 230.57 347.063C228.941 345.081 227.773 342.78 227.172 340.303C226.534 337.825 226.464 335.241 226.959 332.728L240.268 263.744C228.764 259.638 219.031 251.603 212.872 241.02C206.677 230.437 204.447 218.014 206.5 205.909C208.553 193.803 214.818 182.866 224.163 174.938C233.507 167.045 245.33 162.691 257.541 162.691C269.753 162.691 281.575 167.01 290.92 174.938C300.264 182.831 306.53 193.803 308.582 205.909C310.635 218.014 308.405 230.437 302.211 241.02H302.14Z" fill="#131419"/>
<defs>
<linearGradient id="paint0_linear_806_6666" x1="-7.82992e-07" y1="309.728" x2="487.271" y2="345.942" gradientUnits="userSpaceOnUse">
<stop stop-color="#5EE6D0"/>
<stop offset="0.515056" stop-color="#BFC6FF"/>
<stop offset="1" stop-color="#FFBA69"/>
</linearGradient>
<linearGradient id="paint1_linear_806_6666" x1="62.2051" y1="296.672" x2="431.074" y2="324.086" gradientUnits="userSpaceOnUse">
<stop stop-color="#5EE6D0"/>
<stop offset="0.515056" stop-color="#BFC6FF"/>
<stop offset="1" stop-color="#FFBA69"/>
</linearGradient>
</defs>
</svg>
