<svg width="250" height="263" viewBox="0 0 250 263" fill="none" xmlns="http://www.w3.org/2000/svg">
<path d="M21.0248 62.1881C29.4158 43.1777 46.9802 33.7669 60.604 41.0423L61.3045 41.4339L92.2129 59.7296C99.0507 57.4682 106.358 58.0448 112.866 61.359L113.834 61.8736L134.918 74.1203L197.092 110.506C208.2 117.055 214.116 131.088 214.03 146.745L214.015 147.666L225.124 153.844L205.955 197.527L194.728 190.961C184.151 200.709 170.837 203.782 159.629 197.693L158.79 197.219L75.8911 148.795C75.8341 148.824 75.7726 148.839 75.7104 148.839C75.6482 148.839 75.5866 148.824 75.5297 148.795C69.1925 145.083 64.2251 138.859 61.5371 131.263L61.1856 130.219L30.7896 112.27C30.6896 112.132 30.5572 112.031 30.4084 111.978L30.3094 111.958C16.5916 103.968 12.4876 81.5214 21.0272 62.1881H21.0248Z" fill="#2845AE"/>
<path d="M36 187.119L88.9777 219.802L55.255 259.612C55.041 259.917 54.7469 260.133 54.4172 260.227C54.0875 260.321 53.7402 260.288 53.4282 260.133H53.2797L2.63614 230.211C2.41085 230.071 2.21449 229.877 2.06062 229.641C1.90675 229.405 1.79903 229.133 1.74491 228.845C1.69078 228.556 1.69154 228.257 1.74712 227.969C1.8027 227.681 1.91178 227.41 2.06684 227.175L36 187.116V187.119ZM80.4381 136.005L80.6832 136.1L131.411 166.019C131.79 166.222 132.088 166.584 132.244 167.032C132.4 167.479 132.403 167.979 132.252 168.429L132.129 168.715C132.081 168.856 132.01 168.986 131.921 169.098V169.306L92.6881 215.651L39.5594 182.934L78.854 136.617C79.0403 136.352 79.2882 136.153 79.5687 136.044C79.8492 135.935 80.1508 135.921 80.4381 136.002V136.005ZM225.364 154.33C232.131 158.272 233.178 171.207 227.879 183.314C222.577 195.418 212.903 202.024 206.136 198.082C199.366 194.137 198.319 181.204 203.619 169.095C208.921 157.025 218.594 150.385 225.361 154.33H225.364ZM83.0446 57.414C86.1262 57.3755 89.1827 58.0581 92.0297 59.4208C89.5545 60.2213 87.1584 61.3104 84.8713 62.6712L84.0941 63.12H82.9852C73.2228 63.12 63.099 71.5589 57.6782 83.6654C51.8688 96.9469 52.5891 111.646 58.9059 120.363C59.3609 123.669 60.104 126.914 61.1238 130.048C48.6955 121.332 45.25 99.9228 53.547 81.1069C59.8342 66.4075 71.6956 57.414 83.0446 57.414V57.414ZM156.448 48.5578L209.46 81.2441L188.824 105.663L134.918 74.1203L156.453 48.5578H156.448ZM196.965 1.87531L197.213 1.96964L248.213 31.8888C248.632 32.1203 248.957 32.531 249.118 33.0341C249.28 33.5372 249.266 34.0932 249.079 34.5845C249.034 34.7068 248.974 34.8213 248.901 34.9247L213.144 76.9561L160.045 44.3041L195.384 2.48707C195.543 2.26084 195.748 2.08279 195.981 1.96825C196.213 1.85372 196.466 1.80612 196.718 1.82957L196.965 1.87531Z" fill="#5493F7"/>
</svg>
