<svg width="20" height="20" viewBox="0 0 20 20" fill="none" xmlns="http://www.w3.org/2000/svg">
<rect width="20" height="20" rx="10" fill="url(#paint0_linear_11017_13911)"/>
<path fill-rule="evenodd" clip-rule="evenodd" d="M10 4.375C9.30964 4.375 8.75 4.93464 8.75 5.625C8.75 6.31536 9.30964 6.875 10 6.875C10.6904 6.875 11.25 6.31536 11.25 5.625C11.25 4.93464 10.6904 4.375 10 4.375ZM10 9.375C9.30964 9.375 8.75 9.93464 8.75 10.625V15.625C8.75 16.3154 9.30964 16.875 10 16.875C10.6904 16.875 11.25 16.3154 11.25 15.625V10.625C11.25 9.93464 10.6904 9.375 10 9.375Z" fill="#141416"/>
<defs>
<linearGradient id="paint0_linear_11017_13911" x1="6.6374e-07" y1="10" x2="17.9953" y2="16.0062" gradientUnits="userSpaceOnUse">
<stop stop-color="#5EE6D0"/>
<stop offset="0.515056" stop-color="#BFC6FF"/>
<stop offset="1" stop-color="#FFBA69"/>
</linearGradient>
</defs>
</svg>
