<svg width="56" height="56" viewBox="0 0 56 56" fill="none" xmlns="http://www.w3.org/2000/svg">
<rect width="56" height="56" rx="28" fill="#82D318"/>
<path fill-rule="evenodd" clip-rule="evenodd" d="M30.3333 39.6668C23.9022 39.6547 19.608 37.9629 13.262 30.5299C12.022 32.1574 10.7698 33.9427 9.52976 35.886C9.4337 36.039 9.30802 36.1713 9.16011 36.2752C9.01221 36.379 8.84503 36.4523 8.6684 36.4908C8.49176 36.5292 8.30922 36.5321 8.13147 36.4991C7.95372 36.4662 7.78434 36.3982 7.63326 36.299L7.40227 36.1168C7.18107 35.8948 7.04241 35.6041 7.00924 35.2926C6.97608 34.9812 7.05041 34.6677 7.21992 34.4043C8.63014 32.1938 10.0647 30.1777 11.487 28.3437C10.0647 26.5097 8.64229 24.4814 7.21992 22.2831C7.02162 21.9755 6.95377 21.6018 7.03129 21.2442C7.10881 20.8866 7.32534 20.5744 7.63326 20.3763C7.94117 20.1782 8.31525 20.1104 8.67319 20.1878C9.03114 20.2653 9.34362 20.4816 9.54192 20.7892C10.7819 22.7325 12.022 24.53 13.262 26.1575C19.608 18.7245 23.9022 16.3456 30.3333 16.3335C40.3021 16.3335 46.7555 24.0563 48.5548 26.8498C48.8453 27.294 49 27.8131 49 28.3437C49 28.8743 48.8453 29.3934 48.5548 29.8376C46.7555 32.631 40.3021 39.6668 30.3333 39.6668ZM30.3333 19.0905C24.7897 19.3334 20.7143 21.5058 15.0126 28.3437C20.7021 35.1694 24.8019 36.6669 30.3333 36.8977C37.6194 36.8977 42.9795 33.4026 46.2449 28.3558C42.8563 23.0607 37.2025 18.3123 30.3333 19.0905Z" fill="#141416"/>
<path d="M38.955 30.2888C39.4077 30.1988 39.8234 29.9766 40.1498 29.6502C40.5873 29.2127 40.8332 28.6192 40.8332 28.0003C40.8332 27.3815 40.5873 26.788 40.1498 26.3504C39.8234 26.0241 39.4077 25.8019 38.955 25.7118C38.5024 25.6218 38.0333 25.668 37.6069 25.8446C37.1805 26.0212 36.8161 26.3203 36.5597 26.704C36.3033 27.0877 36.1665 27.5388 36.1665 28.0003C36.1665 28.4618 36.3033 28.9129 36.5597 29.2967C36.8161 29.6804 37.1805 29.9794 37.6069 30.156C38.0333 30.3326 38.5024 30.3789 38.955 30.2888Z" fill="#141416"/>
</svg>
