<svg id="Layer_1" data-name="Layer 1" xmlns="http://www.w3.org/2000/svg" viewBox="0 0 400 400"><defs><style>.cls-1{fill:#010101;}</style></defs><path class="cls-1" d="M336.64,246.34l-.43-.37a28.16,28.16,0,0,0-3.91-8.18l-3.67-4.4a31,31,0,0,0-.83-4l-5-10.07-2.86-17.87,3.23-17.86,4.52-8.63.1-.26a29.54,29.54,0,0,0,1-4.85l3.5-4a27.33,27.33,0,0,0,4.2-8.85l.37-.31c12.59-10.37,12.4-25.33,6.61-35.57S325,103,309.61,108.41l-.13,0a27.48,27.48,0,0,0-10.34-1.13l-4.83.84a30.61,30.61,0,0,0-5.15-1.84l-9.7-.6-.22-.16-17-6.52-14.1-12-6-9.49-.27-.35a29.72,29.72,0,0,0-3.06-2.83L236.92,69l-.09-.21a28.42,28.42,0,0,0-5.12-7.73l-.12-.68c-2.87-17.21-16.83-25-29.4-25.15s-26.69,7.44-29.88,24.59l-.18.94a28.77,28.77,0,0,0-5,7.37L165,73.93a30.87,30.87,0,0,0-2.86,2.57l-6.75,10.16-14.06,11.4L125,103.91l-.4.2-.2.15-9.26.39-.28,0a30.13,30.13,0,0,0-5.14,1.72l-4.68-.9-.11,0a27.33,27.33,0,0,0-10.16.91h0c-15.28-5.72-28.14,1.93-34.11,12s-6.45,25.08,5.94,35.69l.17.13a27.24,27.24,0,0,0,4.12,9.19L74,167.22a30.41,30.41,0,0,0,1,5.11l4.29,8.61s0,.06,0,.08l0,.22L82,198.85,78.8,216.42,73.47,226.6l-.16.4a30.54,30.54,0,0,0-.85,3.69l-3.85,4.44-.15.18a28.29,28.29,0,0,0-4,7.89l-.7.57c-13.47,11.1-13.26,27.1-7.08,38s19.79,19.39,36.24,13.58l.43-.16a28.37,28.37,0,0,0,9.4.79l5.6-1a31.24,31.24,0,0,0,4.16,1.39l11.35.7,17.2,6.61,13.82,11.71.36.24h0l5.2,8.19.18.23a28.83,28.83,0,0,0,4,3.51l1.71,5a27.35,27.35,0,0,0,5.84,8.33l.06.32c2.68,16.09,15.74,23.4,27.49,23.52H200c11.68,0,24.7-7.08,27.66-23l.11-.57a27.5,27.5,0,0,0,5.8-8.08l1.84-5a30.16,30.16,0,0,0,3.78-3.26l5.7-8.6,14.28-11.57,17.07-6.11,10.6-.45.44-.06a31.78,31.78,0,0,0,4.11-1.28l5.25,1,.22,0a28.41,28.41,0,0,0,2.92.15,28.81,28.81,0,0,0,6.39-.74l.35.14a31.74,31.74,0,0,0,11.1,2.09c11.34,0,20.51-6.73,25.38-15C349.39,273.68,349.9,257.68,336.64,246.34Zm-10.18,28.49c-4.87,8.26-11.85,14.12-19.22,16.57L303,289.81a77,77,0,0,0,25.22-42.95l3.42,2.93C333.12,257.47,331.38,266.5,326.46,274.83Zm-83.65,38.52c-.76.35-1.54.68-2.35,1l2-5.45,3.91-.41-2.8,4.23Zm-9.15,12.25a33.4,33.4,0,0,1-3.39,2.18l1.27-6.85c1.46-.35,2.87-.72,4.24-1.12Zm-7.52,13.66c-6.16,6-15.69,9.55-26.35,9.44S179.88,345,173.84,339l-1.11-6.67c7.54,3.33,16.91,5.23,27.07,5.33h.8c10,0,19.29-1.78,26.76-5Zm-26.31-4.68c-10.48-.1-20.26-2.28-27.72-6L170.84,321a140.35,140.35,0,0,0,30.48,3.18,136.69,136.69,0,0,0,28.14-2.76l-1.4,7.53C220.5,332.59,210.52,334.64,199.83,334.58Zm-35.44-15.32c1.41.44,2.88.84,4.38,1.22l1.16,7a34.87,34.87,0,0,1-3.51-2.3Zm-7.67-7-2.89-4.56c1.32.18,2.68.35,4.07.51l1.93,5.58c-1-.4-1.88-.8-2.75-1.23ZM73.61,272.45c-4.8-8.49-6.36-17.63-4.66-25.32l3.58-2.94a71.87,71.87,0,0,0,8.71,24.13,72.73,72.73,0,0,0,15.62,19.46l-4.47,1.57C85.12,286.74,78.29,280.75,73.61,272.45Zm9.22-91.35c.08-.92.2-1.87.35-2.83l3.57,4.28c-.54,1.2-1.07,2.38-1.57,3.54l-2.29-4.58ZM77,167a32.87,32.87,0,0,1-.18-4L82,167.34c-.43,1.41-.82,2.8-1.16,4.17Zm-2.8-40.57c5.34-9,13.16-15.33,21.36-17.59l6,2.26a69.52,69.52,0,0,0-18.11,20.74c-5.22,8.85-8.44,18-9.44,26.2l-4.89-4.18C67.14,145.53,68.84,135.54,74.23,126.41Zm12,7c5.32-9,12.08-16.37,19-21l7,2.61C99.78,128.39,88.22,148,82.6,165.3L77,160.48C77.61,152.12,80.8,142.51,86.18,133.39Zm30.6-23c-1.06,1-2.11,2-3.16,3.13l-6.36-2.38a33.68,33.68,0,0,1,3.69-1.87Zm9.63-3.1,5.37-.22c-.79,1-1.6,2.1-2.41,3.19l-5.56-1.07c.86-.67,1.73-1.31,2.58-1.89Zm150.94,1.43c.86.61,1.74,1.28,2.61,2l-5.77,1c-.82-1.14-1.63-2.27-2.43-3.35l5.53.34ZM293,111a35.81,35.81,0,0,1,3.74,2l-6.58,2.33C289.08,114.14,288,113,287,112Zm36.53,17.85c5.26,9.31,6.76,19.42,4.48,27.69l-5.09,4.19c-.81-8.33-3.87-17.6-9-26.64a69.65,69.65,0,0,0-17.59-21l6.26-2.21C316.69,113.29,324.36,119.7,329.51,128.81Zm-7.73,45.31c-.3-1.37-.65-2.76-1-4.17l5.27-4.34a35.85,35.85,0,0,1-.27,3.95Zm-2.27,9.21-.16.94-2.3,4.4c-.48-1.16-1-2.34-1.49-3.54l3.71-4.28C319.37,181.7,319.46,182.52,319.51,183.33ZM258.66,294.57c.61-1.22,1.23-2.46,1.87-3.72l6.78,1.31c-.56.73-1.1,1.42-1.65,2.12ZM249,304c-1.57.21-3.22.41-4.91.59l2.12-5.77c2.15.15,4.25.32,6.3.49l-3,4.5Zm-80.8,1-1.2-7.2-.09-.43c21.43-.67,45.62-.44,67,.67,0,.13-.06.25-.08.38l-1.33,7.14A472,472,0,0,1,168.17,305Zm63.46,4.8-1.44,7.72c-17.88,4.1-42.07,3.92-60-.43l-1.3-7.82c11.16.87,23.55,1.32,35.77,1.32C214,310.56,223.15,310.29,231.63,309.77ZM150.86,303l-3-4.78c2.11-.14,4.28-.26,6.5-.38l2,5.92c-1.89-.24-3.72-.48-5.47-.75Zm-16.26-9.95-1.7-2.27,6.65-1.15.35-.08,1.88,3.93Zm-11.55-174A480.88,480.88,0,0,0,91.4,172.83l-5.78-4.94c5.42-17.47,17.59-38.17,30.25-51.48Zm4,1.52,7,2.62C124,142,111.84,162.64,100.31,180.45l-5.63-4.82A471.55,471.55,0,0,1,127.1,120.62Zm15.6-14.05c-.91,1.85-1.87,3.74-2.85,5.68l-5.91-1.15q1.71-2.25,3.34-4.31Zm110.92-2-4.35.26c-.09-.31-.2-.62-.28-.93l-2-5.83c.95.12,1.87.25,2.77.38Zm12.65,3.4c1.09,1.42,2.2,2.92,3.33,4.48l-6.11,1.06q-1.47-3-2.82-5.88Zm41.52,70.09L302,182.85c-11.24-18-23.11-39-32.87-58.06l7.22-2.55A471.57,471.57,0,0,1,307.79,178.08ZM280.42,120.8l7.41-2.62c12.45,13.64,24.23,34.68,29.24,52.25l-5.94,4.9A479.19,479.19,0,0,0,280.42,120.8Zm33.92,72.36.08.53L312,198.35c-1.13-1.67-2.26-3.39-3.42-5.16l3.94-4.54C313.15,190.19,313.77,191.7,314.34,193.16Zm2.88,36.56-5.16-4.41c.36-.74.72-1.48,1.06-2.21l4.42,5.29C317.43,228.83,317.33,229.27,317.22,229.72Zm3.64,2.65,1.37,1.64-1.47-1.26C320.8,232.63,320.83,232.5,320.86,232.37Zm-41.15,48.72a483,483,0,0,0,29.66-50.35l6,5.16c-5.46,16.37-16.53,35.19-28.21,48Zm-32,13q.93-2.84,1.94-5.67,4,.78,7.8,1.7c-.79,1.56-1.54,3.08-2.28,4.58Q251.53,294.38,247.7,294.1Zm-10.91-.71c.51-2.33,1.05-4.64,1.64-6.95,2.94.45,5.84.95,8.72,1.49-.72,2-1.39,4-2,6C242.4,293.73,239.62,293.55,236.79,293.39Zm-81.3-.37c-.62-2-1.28-4.08-2-6.14,2.94-.48,5.93-.91,8.94-1.29q.84,3.51,1.53,7.07C161.12,292.77,158.26,292.88,155.49,293Zm-10.25.62c-.72-1.56-1.47-3.13-2.24-4.73,2.63-.57,5.31-1.1,8-1.58.66,1.95,1.28,3.9,1.88,5.83C150.29,293.31,147.72,293.46,145.24,293.64Zm-6.9-14.18q4.41-1.44,8.86-2.67,1.06,2.73,2.05,5.46c-2.93.53-5.81,1.1-8.65,1.73ZM94.76,225.88l6.55-5.39.28-.24c10.63,17.18,21.75,36.83,31.08,54.89l-.42.14-8.08,2.85A475.51,475.51,0,0,1,94.76,225.88Zm25.88,53.5-7.7,2.72c-11.47-13.11-22.2-32.23-27.28-48.72l6.21-5.12A483.38,483.38,0,0,0,120.64,279.38Zm111-182.83,1.33,8c.05.34.13.67.19,1-20.37.59-43,.36-63.31-.63.06-.32.14-.64.2-1L171.54,96A475.11,475.11,0,0,1,231.67,96.55Zm-59.44-4.19,1.5-8c17-3.51,39-3.34,56,.41l1.36,8.14A481.13,481.13,0,0,0,172.23,92.36Zm83.14,15.2c1.05,2.27,2.16,4.6,3.31,7-2,.42-4,.81-6,1.18-.91-2.62-1.75-5.22-2.54-7.82C252,107.79,253.67,107.68,255.37,107.56Zm43,78.44c-1.8,1.56-3.58,3.15-5.32,4.77a282.75,282.75,0,0,1-35.48-62.33q3.53-1,7-2.14C274.56,145.93,286.72,167.42,298.33,186Zm11,16.95c-.94,1.34-1.88,2.69-2.84,4.09-1.75-1.92-3.48-3.9-5.2-5.92,1.31-1.47,2.62-2.91,3.95-4.33C306.62,198.9,308,201,309.33,203ZM265,275.65q-4.51-1.62-9.09-3a285,285,0,0,1,34.65-58.53q3.4,3.3,7,6.44C286.43,237.79,274.77,257.54,265,275.65Zm-101.71-168q-1,4.52-2.13,9c-1.84-.29-3.69-.59-5.51-.92q1.51-4.19,2.83-8.32ZM285.75,200.7c1.49-1.58,3-3.15,4.55-4.68,1.91,2.46,3.84,4.85,5.8,7.2-1.24,1.46-2.46,3-3.68,4.47C290.14,205.41,287.9,203.08,285.75,200.7Zm-1.3-1.48a192.49,192.49,0,0,1-38.77-67.78c2.24-.49,4.47-1,6.69-1.56a288.83,288.83,0,0,0,36.73,64.56C287.52,196,286,197.61,284.45,199.22Zm-4,4.36a196.41,196.41,0,0,0-38.71,65.28,198.36,198.36,0,0,0-82.27-1,196.6,196.6,0,0,0-38-66.49,198.21,198.21,0,0,0,41.33-69.71,196.48,196.48,0,0,0,77.12,1A198.51,198.51,0,0,0,280.44,203.58Zm-35.38-74c-1-3.19-1.94-6.39-2.78-9.63,2-.28,4-.56,6-.88,1.05,3,2.18,6,3.37,9C249.44,128.6,247.26,129.1,245.06,129.58Zm-5.81,1.15a194.38,194.38,0,0,1-75.84-1c1.08-3.26,2.07-6.57,3-9.9a287.29,287.29,0,0,0,70,.8Q237.7,125.74,239.25,130.73ZM167,117.42q1.23-4.71,2.22-9.49c20.64,1,43.8,1.26,64.53.65.61,3.23,1.29,6.44,2.06,9.62A284.91,284.91,0,0,1,167,117.42ZM160.55,119c-.88,3.18-1.87,6.33-2.91,9.45-2.12-.51-4.23-1-6.33-1.63,1.23-2.93,2.39-5.87,3.48-8.79C156.69,118.39,158.62,118.7,160.55,119ZM157,130.32A192.56,192.56,0,0,1,117.47,197c-1.49-1.61-3-3.22-4.53-4.78a288.6,288.6,0,0,0,37.59-63.53C152.67,129.25,154.83,129.79,157,130.32Zm-40.82,68.1q-3.32,3.56-6.82,7c-1.18-1.51-2.37-3-3.57-4.48q3-3.49,6-7.16C113.24,195.26,114.71,196.84,116.17,198.42Zm3.93,4.4a194.73,194.73,0,0,1,37.42,65.39c-3.39.71-6.75,1.53-10.1,2.42a287.65,287.65,0,0,0-34.48-60.56C115.39,207.71,117.79,205.3,120.1,202.82Zm39.25,71c.66,2.17,1.26,4.35,1.85,6.54-3.19.41-6.33.89-9.43,1.42q-1-2.85-2.13-5.69Q154.47,274.85,159.35,273.84Zm1.93-.36a192.55,192.55,0,0,1,78.53,1c-.69,2.16-1.36,4.34-2,6.53a288.42,288.42,0,0,0-74.66-.84Q162.29,276.79,161.28,273.48Zm80.45,1.39c3.17.74,6.32,1.58,9.45,2.48q-1.14,2.76-2.19,5.52c-3-.58-6.09-1.12-9.19-1.6C240.41,279.13,241.05,277,241.73,274.87Zm1.92-5.57A194.5,194.5,0,0,1,281.77,205c2.26,2.49,4.6,4.92,7,7.29a287.51,287.51,0,0,0-35.26,59.58C250.23,271,247,270.08,243.65,269.3Zm50.58-59.84c1.17-1.45,2.34-2.88,3.53-4.28,1.87,2.19,3.75,4.33,5.67,6.4-.88,1.3-1.76,2.64-2.64,4Q297.43,212.59,294.23,209.46ZM305.52,214l5,6c-.44.94-.89,1.89-1.35,2.84l-5.82-5-.27-.25C303.91,216.41,304.72,215.19,305.52,214Zm-5.87-14.82c-1.84-2.22-3.67-4.49-5.46-6.82q2.55-2.39,5.2-4.67,2.24,3.56,4.43,6.94C302.42,196.11,301,197.62,299.65,199.17Zm-42.86-72.56c-1.14-2.83-2.23-5.66-3.24-8.48q3.16-.6,6.26-1.26c1.24,2.51,2.5,5.06,3.82,7.66Q260.23,125.64,256.79,126.61Zm-9.37-10q-2.83.47-5.72.85-1.11-4.53-2-9.11c1.68-.07,3.37-.13,5-.21C245.55,111,246.46,113.81,247.42,116.64Zm-8.29-11.32c-.1-.59-.24-1.18-.33-1.77l-1.09-6.48c1.15.1,2.29.21,3.4.33l2.67,7.73Zm-74.83-2.47c-.11.57-.25,1.14-.36,1.72-1.5-.09-3-.17-4.46-.27l2.79-7.59,3.22-.26Zm-10,.18,0,.14c-.08.25-.17.49-.24.74l-4.15-.34,3.93-5.95,2.6-.31Zm-1.26,3.9q-1.23,3.81-2.64,7.66-2.9-.6-5.73-1.28c1.17-2.31,2.31-4.58,3.39-6.8C149.67,106.66,151.32,106.8,153,106.93Zm-9.55,8.69c2,.48,4,.94,6.05,1.36-1,2.77-2.17,5.54-3.33,8.31-2.22-.68-4.42-1.42-6.61-2.19C140.93,120.57,142.21,118.08,143.47,115.62Zm-4.83,9.23c2.25.79,4.5,1.55,6.76,2.25a282.66,282.66,0,0,1-36.29,61.32c-1.7-1.62-3.43-3.2-5.19-4.77C115.84,165.32,128.32,144.18,138.64,124.85Zm-35.8,60.46q2.56,2.3,5.06,4.67-2.76,3.48-5.6,6.8-2-2.33-4-4.56C99.76,190,101.29,187.68,102.84,185.31Zm-6,9.06c1.29,1.42,2.57,2.85,3.83,4.33-1.76,2-3.54,4-5.34,5.89-.92-1.4-1.83-2.75-2.73-4.09C93.94,198.53,95.36,196.47,96.79,194.37Zm7.3,8.43c1.16,1.41,2.29,2.86,3.42,4.31q-3.29,3.1-6.71,6.06c-.85-1.34-1.7-2.68-2.54-4Q101.22,206.09,104.09,202.8Zm-5.65,12.4c-.3.25-.58.51-.87.75l-5.38,4.43c-.44-1-.86-1.91-1.28-2.85l5.2-6C96.88,212.73,97.66,214,98.44,215.2Zm5.51,3q3.66-3.12,7.14-6.4A284.67,284.67,0,0,1,145,271.31q-4.69,1.31-9.34,2.86C126.15,255.77,114.79,235.7,104,218.21Zm60.48,67.15a283,283,0,0,1,72,.82q-.9,3.52-1.67,7.1c-13.66-.73-28.39-1.11-42.91-1.11-8.83,0-17.56.14-25.92.42Q165.27,289,164.43,285.36Zm87.07-2c.68-1.76,1.38-3.53,2.1-5.29,2.89.87,5.76,1.8,8.61,2.81l-2.29,4.36Q255.78,284.25,251.5,283.37Zm13.65-1.45.38.13,7.21,2.7c-.64.9-1.27,1.81-1.9,2.67l-7.79-1.5Zm2.8-5.24c9.6-17.78,21-37.11,31.92-54.06l6.65,5.69a474.43,474.43,0,0,1-30.32,51.47Zm45-62-4.37-5.23c.77-1.14,1.53-2.23,2.29-3.33l3.09,6.2C313.66,213.06,313.33,213.84,313,214.64Zm3.14,1.91,2.29,4.6-2.83-3.39C315.77,217.35,315.94,217,316.12,216.55Zm-9-25.56c-1.36-2.11-2.73-4.25-4.11-6.46l0,0,5.56-4.57c1,2.11,1.89,4.16,2.76,6.17Zm-38.81-68-.12,0c-1.23-2.41-2.43-4.8-3.58-7.13l6.58-1.14q2,2.79,4,5.8ZM245.65,94.25,244,89.37l3.22,5.07Zm-8.55-.9-1.18-7,1.52.49,2.36,6.81Zm-1.95-11.63-.49-3,1.09,3.15Zm-60.59-1.88L175.83,73c7.23-3.15,16.43-4.91,26.23-4.8a66,66,0,0,1,25.74,5.11L229,80.24A148.89,148.89,0,0,0,174.56,79.84Zm-7.1,6-1.28,6.9-2.53.19,2.45-6.69Zm.43-4.48.82-2.23-.39,2.11ZM156.41,93.64l3-4.46-1.58,4.31Zm-17.75,20.94c-1.17,2.26-2.39,4.58-3.63,6.92L128.25,119c1.37-1.95,2.71-3.81,4-5.61ZM99.23,182.11q-2.13,3.28-4.22,6.4l-4.11-4.92c.91-2,1.87-4,2.9-6.13Zm-5.69,8.57q-1.79,2.63-3.52,5.12L87.64,191c.65-1.58,1.35-3.22,2.1-4.9Zm-2.65,12.87,2.22,3.35-.29.31-4.23,4.88-1-2.33Zm-5,11.62-2.77,3.2L85.43,214C85.6,214.38,85.75,214.77,85.92,215.17Zm3.37,7.6L84,227.14c-.1-.43-.19-.87-.28-1.29l4.58-5.28C88.6,221.29,89,222,89.29,222.77Zm-8.92,7.34-1.3,1.08,1.22-1.41C80.31,229.89,80.34,230,80.37,230.11Zm1.77,6.16a149,149,0,0,0,26.52,47.34l-6.51,2.3A65.87,65.87,0,0,1,85.39,266c-4.84-8.57-7.76-17.51-8.49-25.39Zm35.19,50.51,6.66-2.35,1.54,2.26-7,1.22C118.11,287.54,117.72,287.17,117.33,286.78Zm-3.93,2-3.49.6,3-1.07Zm14.14-5.62,6.67-2.36,1.17-.39q1.06,2.11,2.09,4.18l-8,1.39C128.83,285.09,128.18,284.13,127.54,283.18Zm29.4,14.54c2.6-.12,5.26-.23,8-.32,0,.23.09.46.13.69l1.12,6.71c-2.41-.22-4.74-.45-7-.71Zm78.73,1c0-.21.1-.43.14-.65,2.64.15,5.22.31,7.76.48l-2.29,6.23q-3.3.31-6.84.57Zm35.62-5.82,4.75.91-5.61.24Zm5-6.86,6.44,2.41-1.11,1-6.82-1.32Zm10.8,4.05,2.42.9-2.8-.54Zm31.79-51.26,5.07,4.33c-.91,7.8-4,16.58-8.93,24.95a65.93,65.93,0,0,1-17.25,19.7l-6.3-2.36A149,149,0,0,0,318.85,238.86Zm-3.22-33.94-1.76-3.55,1.37-2.61.71,4.4Zm-1.18-22.35c-.78-1.76-1.6-3.57-2.46-5.41l5.65-4.65q.67,2.61,1.12,5.09Zm2.79-47c5.27,9.33,8.3,19.12,8.72,27.55l-5.81,4.79c-5.22-17.38-16.42-37.35-28.58-51l7.2-2.54C305.56,119.06,312.13,126.51,317.24,135.56Zm-30.86-19-7.07,2.5c-1.18-1.77-2.35-3.5-3.51-5.16l6.65-1.16C283.76,114,285.07,115.25,286.38,116.61Zm-23.93-11.94-3.29-.2-2.28-3.59,1.95.74ZM226.08,63l.79,4.75a77,77,0,0,0-50-.32l.88-4.69c5.82-5.1,14.38-8.12,23.93-8.12h.42C211.69,54.75,220.27,57.87,226.08,63Zm-79.59,37-2.1,3.17-.13.23-3.1.13,3.54-2.88Zm-18.78,12.45q-1.74,2.4-3.52,5l-6.83-2.56q2-2,3.92-3.66ZM85,169.94l5.49,4.7c-.9,1.82-1.76,3.62-2.59,5.38l-4.16-5Q84.28,172.55,85,169.94Zm1.71,26.14,1.33,2.67-1.83,3.49-.29-1.78Zm37.08,96.3,5.11-.89c.31.43.62.87.93,1.29l-6-.37Zm16.25,5.78,4.27.27,1.75,2.76-4.44-1.7Zm20.62,10.33c2,.21,4.08.41,6.2.58l1.24,7.46c-1.82-.48-3.56-1-5.22-1.6ZM232.28,317l1.37-7.34c2-.13,4.07-.29,6-.46l-2.31,6.31Q234.94,316.3,232.28,317Zm22.06-15,1.71-2.57,4.06-.17-1.47,1.19Zm68.22-123.9c-.05-.29-.11-.58-.16-.88l1.55-1.78Zm7.77-13.86-1.22,1.4c0-.84,0-1.7,0-2.57l3.63-3A23.22,23.22,0,0,1,330.33,164.26Zm11.45-42.19c5.12,9.07,5.5,22.12-4.59,31.68,1.3-8.15-.52-17.39-5.49-26.17-4.86-8.6-11.64-14.86-19.13-18C325.84,106,336.69,113.07,341.78,122.07Zm-42.31-12.24A23.34,23.34,0,0,1,305,110l-4.6,1.62c-.8-.56-1.61-1.08-2.43-1.57Zm-11.64-.53-3.2.56-.92-.81Zm-85.7-68.2c8.37.08,17.49,4.42,21.7,13.74a47.17,47.17,0,0,0-43.72-.26C184.48,45.25,193.75,41.06,202.13,41.1ZM120,107.52l-.86.73-2.92-.57Zm-17.78.35a22.92,22.92,0,0,1,2.34.12l1.39.27c-.79.46-1.58.95-2.37,1.46l-4.37-1.63A23.44,23.44,0,0,1,102.23,107.87Zm-40,11.57c4.24-7.19,12.22-13,22.07-13a26.52,26.52,0,0,1,7.26,1c-7.56,3-14.5,9.14-19.54,17.69s-7.1,17.74-6,25.88C56.35,141.29,57,128.35,62.27,119.44Zm8.11,38,3.48,3c-.06.9-.1,1.79-.11,2.66l-.94-1.13A23.52,23.52,0,0,1,70.38,157.43Zm8.08,15.19,1.66,2c-.06.33-.13.65-.19,1ZM61.82,278.93c-4.12-7.3-4.92-17.38,1.08-25.71A47.17,47.17,0,0,0,84.13,291.3C74,292,65.91,286.16,61.82,278.93Zm98.47,38.94,1.09.39,1,2.91Zm8.39,13.81-.59-1.72c.8.47,1.63.92,2.48,1.35l.82,4.89A22.85,22.85,0,0,1,168.68,331.68ZM200,362.82h-.25c-10.39-.1-21.86-6.26-25.12-19.71,6.39,5.06,15.19,8,25.13,8.11h.49c9.86,0,18.62-2.84,25-7.83C221.85,356.8,210.37,362.82,200,362.82Zm31.25-30.65a23.29,23.29,0,0,1-2.59,4.23l.89-4.74c.8-.39,1.59-.8,2.34-1.24Zm6.69-10.93.88-2.4.91-.31Zm100-39.72c-4.2,7.12-12.37,12.81-22.39,12a47.21,47.21,0,0,0,22-37.43C343.18,264.44,342.15,274.38,337.94,281.52Z"/></svg>